999
dxfrw 0.6.3
  0
SECTION
  2
HEADER
  9
$ACADVER
  1
AC1021
  9
$DWGCODEPAGE
  3
ANSI_1252
  9
$INSBASE
 10
0
 20
0
 30
0
  9
$EXTMIN
 10
0
 20
0
 30
0
  9
$EXTMAX
 10
21.3334
 20
9.33333
 30
0
  9
$LIMMIN
 10
0
 20
0
  9
$LIMMAX
 10
420
 20
297
  9
$ORTHOMODE
 70
    0
  9
$REGENMODE
 70
    1
  9
$FILLMODE
 70
    1
  9
$QTEXTMODE
 70
    0
  9
$MIRRTEXT
 70
    0
  9
$LTSCALE
 40
1
  9
$ATTMODE
 70
    0
  9
$TEXTSIZE
 40
2.5
  9
$TRACEWID
 40
15.68
  9
$TEXTSTYLE
  7
STANDARD
  9
$CLAYER
  8
0
  9
$CELTYPE
  6
BYLAYER
  9
$CECOLOR
 62
  256
  9
$CELTSCALE
 40
1
  9
$DISPSILH
 70
    0
  9
$DIMSCALE
 40
2.5
  9
$DIMASZ
 40
2.5
  9
$DIMEXO
 40
0.625
  9
$DIMDLI
 40
3.75
  9
$DIMRND
 40
0
  9
$DIMDLE
 40
0
  9
$DIMEXE
 40
1.25
  9
$DIMTP
 40
0
  9
$DIMTM
 40
0
  9
$DIMTXT
 40
2.5
  9
$DIMCEN
 40
2.5
  9
$DIMTSZ
 40
0
  9
$DIMTOL
 70
    0
  9
$DIMLIM
 70
    0
  9
$DIMTIH
 70
    0
  9
$DIMTOH
 70
    0
  9
$DIMSE1
 70
    0
  9
$DIMSE2
 70
    0
  9
$DIMTAD
 70
    1
  9
$DIMZIN
 70
    8
  9
$DIMBLK
  1

  9
$DIMASO
 70
    1
  9
$DIMSHO
 70
    1
  9
$DIMPOST
  1

  9
$DIMAPOST
  1

  9
$DIMALT
 70
    0
  9
$DIMALTD
 70
    3
  9
$DIMALTF
 40
0.03937
  9
$DIMLFAC
 40
1
  9
$DIMTOFL
 70
    1
  9
$DIMTVP
 40
0
  9
$DIMTIX
 70
    0
  9
$DIMSOXD
 70
    0
  9
$DIMSAH
 70
    0
  9
$DIMBLK1
  1

  9
$DIMBLK2
  1

  9
$DIMSTYLE
  2
Standard
  9
$DIMCLRD
 70
    0
  9
$DIMCLRE
 70
    0
  9
$DIMCLRT
 70
    0
  9
$DIMTFAC
 40
1
  9
$DIMGAP
 40
0.625
  9
$DIMJUST
 70
    0
  9
$DIMSD1
 70
    0
  9
$DIMSD2
 70
    0
  9
$DIMTOLJ
 70
    0
  9
$DIMTZIN
 70
    8
  9
$DIMALTZ
 70
    0
  9
$DIMALTTZ
 70
    0
  9
$DIMUPT
 70
    0
  9
$DIMDEC
 70
    2
  9
$DIMTDEC
 70
    2
  9
$DIMALTU
 70
    2
  9
$DIMALTTD
 70
    3
  9
$DIMTXSTY
  7
STANDARD
  9
$DIMAUNIT
 70
    0
  9
$DIMADEC
 70
    0
  9
$DIMALTRND
 40
0
  9
$DIMAZIN
 70
    0
  9
$DIMDSEP
 70
   44
  9
$DIMATFIT
 70
    3
  9
$DIMFRAC
 70
    0
  9
$DIMLDRBLK
  1
STANDARD
  9
$DIMLUNIT
 70
    2
  9
$DIMLWD
 70
   -2
  9
$DIMLWE
 70
   -2
  9
$DIMTMOVE
 70
    0
  9
$DIMFXL
 40
1
  9
$DIMFXLON
 70
    0
  9
$DIMJOGANG
 40
0.7854
  9
$DIMTFILL
 70
    0
  9
$DIMTFILLCLR
 70
    0
  9
$DIMARCSYM
 70
    0
  9
$DIMLTYPE
  6

  9
$DIMLTEX1
  6

  9
$DIMLTEX2
  6

  9
$LUNITS
 70
    2
  9
$LUPREC
 70
    4
  9
$SKETCHINC
 40
1
  9
$FILLETRAD
 40
0
  9
$AUNITS
 70
    0
  9
$AUPREC
 70
    2
  9
$MENU
  1
.
  9
$ELEVATION
 40
0
  9
$PELEVATION
 40
0
  9
$THICKNESS
 40
0
  9
$LIMCHECK
 70
    0
  9
$CHAMFERA
 40
0
  9
$CHAMFERB
 40
0
  9
$CHAMFERC
 40
0
  9
$CHAMFERD
 40
0
  9
$SKPOLY
 70
    0
  9
$USRTIMER
 70
    1
  9
$ANGBASE
 50
0
  9
$ANGDIR
 70
    0
  9
$PDMODE
 70
   34
  9
$PDSIZE
 40
0
  9
$PLINEWID
 40
0
  9
$SPLFRAME
 70
    0
  9
$SPLINETYPE
 70
    2
  9
$SPLINESEGS
 70
    8
  9
$HANDSEED
  5
20000
  9
$SURFTAB1
 70
    6
  9
$SURFTAB2
 70
    6
  9
$SURFTYPE
 70
    6
  9
$SURFU
 70
    6
  9
$SURFV
 70
    6
  9
$UCSBASE
  2

  9
$UCSNAME
  2

  9
$UCSORG
 10
0
 20
0
 30
0
  9
$UCSXDIR
 10
1
 20
0
 30
0
  9
$UCSYDIR
 10
0
 20
1
 30
0
  9
$UCSORTHOREF
  2

  9
$UCSORTHOVIEW
 70
    0
  9
$UCSORGTOP
 10
0
 20
0
 30
0
  9
$UCSORGBOTTOM
 10
0
 20
0
 30
0
  9
$UCSORGLEFT
 10
0
 20
0
 30
0
  9
$UCSORGRIGHT
 10
0
 20
0
 30
0
  9
$UCSORGFRONT
 10
0
 20
0
 30
0
  9
$UCSORGBACK
 10
0
 20
0
 30
0
  9
$PUCSBASE
  2

  9
$PUCSNAME
  2

  9
$PUCSORG
 10
0
 20
0
 30
0
  9
$PUCSXDIR
 10
1
 20
0
 30
0
  9
$PUCSYDIR
 10
0
 20
1
 30
0
  9
$PUCSORTHOREF
  2

  9
$PUCSORTHOVIEW
 70
    0
  9
$PUCSORGTOP
 10
0
 20
0
 30
0
  9
$PUCSORGBOTTOM
 10
0
 20
0
 30
0
  9
$PUCSORGLEFT
 10
0
 20
0
 30
0
  9
$PUCSORGRIGHT
 10
0
 20
0
 30
0
  9
$PUCSORGFRONT
 10
0
 20
0
 30
0
  9
$PUCSORGBACK
 10
0
 20
0
 30
0
  9
$USERI1
 70
    0
  9
$USERI2
 70
    0
  9
$USERI3
 70
    0
  9
$USERI4
 70
    0
  9
$USERI5
 70
    0
  9
$USERR1
 40
0
  9
$USERR2
 40
0
  9
$USERR3
 40
0
  9
$USERR4
 40
0
  9
$USERR5
 40
0
  9
$WORLDVIEW
 70
    1
  9
$SHADEDGE
 70
    3
  9
$SHADEDIF
 70
   70
  9
$TILEMODE
 70
    1
  9
$MAXACTVP
 70
   64
  9
$PINSBASE
 10
0
 20
0
 30
0
  9
$PLIMCHECK
 70
    0
  9
$PEXTMIN
 10
0
 20
0
 30
0
  9
$PEXTMAX
 10
0
 20
0
 30
0
  9
$SNAPSTYLE
 70
    0
  9
$PLIMMIN
 10
0
 20
0
  9
$PLIMMAX
 10
12
 20
9
  9
$UNITMODE
 70
    0
  9
$VISRETAIN
 70
    1
  9
$PLINEGEN
 70
    0
  9
$PSLTSCALE
 70
    1
  9
$TREEDEPTH
 70
 3020
  9
$CMLSTYLE
  2
Standard
  9
$CMLJUST
 70
    0
  9
$CMLSCALE
 40
20
  9
$PROXYGRAPHICS
 70
    1
  9
$MEASUREMENT
 70
    1
  9
$CELWEIGHT
370
   -1
  9
$ENDCAPS
280
    0
  9
$JOINSTYLE
280
    0
  9
$LWDISPLAY
290
    0
  9
$INSUNITS
 70
    0
  9
$HYPERLINKBASE
  1

  9
$STYLESHEET
  1

  9
$XEDIT
290
    1
  9
$CEPSNTYPE
380
    0
  9
$PSTYLEMODE
290
    1
  9
$EXTNAMES
290
    1
  9
$PSVPSCALE
 40
1
  9
$OLESTARTUP
290
    0
  9
$SORTENTS
280
  127
  9
$INDEXCTL
280
    0
  9
$HIDETEXT
280
    1
  9
$XCLIPFRAME
290
    0
  9
$HALOGAP
280
    0
  9
$OBSCOLOR
 70
  257
  9
$OBSLTYPE
280
    0
  9
$INTERSECTIONDISPLAY
280
    0
  9
$INTERSECTIONCOLOR
 70
  257
  9
$DIMASSOC
280
    1
  9
$PROJECTNAME
  1

  9
$CAMERADISPLAY
290
    0
  9
$LENSLENGTH
 40
50
  9
$CAMERAHEIGHT
 40
0
  9
$STEPSPERSEC
 40
2
  9
$STEPSIZE
 40
50
  9
$3DDWFPREC
 40
2
  9
$PSOLWIDTH
 40
5
  9
$PSOLHEIGHT
 40
80
  9
$LOFTANG1
 40
1.570796326794897
  9
$LOFTANG2
 40
1.570796326794897
  9
$LOFTMAG1
 40
0
  9
$LOFTMAG2
 40
0
  9
$LOFTPARAM
 70
    7
  9
$LOFTNORMALS
280
    1
  9
$LATITUDE
 40
1
  9
$LONGITUDE
 40
1
  9
$NORTHDIRECTION
 40
0
  9
$TIMEZONE
 70
-8000
  9
$LIGHTGLYPHDISPLAY
280
    1
  9
$TILEMODELIGHTSYNCH
280
    1
  9
$SOLIDHIST
280
    1
  9
$SHOWHIST
280
    1
  9
$DWFFRAME
280
    2
  9
$DGNFRAME
280
    0
  9
$REALWORLDSCALE
290
    1
  9
$INTERFERECOLOR
 62
    1
  9
$CSHADOW
280
    0
  9
$SHADOWPLANELOCATION
 40
0
  0
ENDSEC
  0
SECTION
  2
CLASSES
  0
ENDSEC
  0
SECTION
  2
TABLES
  0
TABLE
  2
VPORT
  5
8
330
0
100
AcDbSymbolTable
 70
    1
  0
VPORT
  5
31
330
2
100
AcDbSymbolTableRecord
100
AcDbViewportTableRecord
  2
*ACTIVE
 70
    0
 10
0
 20
0
 11
1
 21
1
 12
21.52604853951103
 22
14.43189110003993
 13
0
 23
0
 14
10
 24
10
 15
10
 25
10
 16
0
 26
0
 36
1
 17
0
 27
0
 37
0
 40
51.63815887271669
 41
1.279481132075472
 42
50
 43
0
 44
0
 50
0
 51
0
 71
    0
 72
  100
 73
    1
 74
    3
 75
    0
 76
    1
 77
    0
 78
    0
281
    0
 65
    1
110
0
120
0
130
0
111
1
121
0
131
0
112
0
122
1
132
0
 79
    0
146
0
348
10020
 60
    7
 61
    5
292
1
282
    1
141
0
142
0
 63
  250
421
3358443
  0
ENDTAB
  0
TABLE
  2
LTYPE
  5
5
330
0
100
AcDbSymbolTable
 70
    4
  0
LTYPE
  5
14
330
5
100
AcDbSymbolTableRecord
100
AcDbLinetypeTableRecord
  2
ByBlock
 70
    0
  3

 72
   65
 73
    0
 40
0
  0
LTYPE
  5
15
330
5
100
AcDbSymbolTableRecord
100
AcDbLinetypeTableRecord
  2
ByLayer
 70
    0
  3

 72
   65
 73
    0
 40
0
  0
LTYPE
  5
16
330
5
100
AcDbSymbolTableRecord
100
AcDbLinetypeTableRecord
  2
Continuous
 70
    0
  3
Solid line
 72
   65
 73
    0
 40
0
  0
LTYPE
  5
32
330
5
100
AcDbSymbolTableRecord
100
AcDbLinetypeTableRecord
  2
DOT
 70
    0
  3
Dot . . . . . . . . . . . . . . . . . . . . . .
 72
   65
 73
    2
 40
6.35
 49
0
 74
    0
 49
-6.35
 74
    0
  0
LTYPE
  5
33
330
5
100
AcDbSymbolTableRecord
100
AcDbLinetypeTableRecord
  2
DOTTINY
 70
    0
  3
Dot (.15x) .....................................
 72
   65
 73
    2
 40
0.9525
 49
0
 74
    0
 49
-0.9525
 74
    0
  0
LTYPE
  5
34
330
5
100
AcDbSymbolTableRecord
100
AcDbLinetypeTableRecord
  2
DOT2
 70
    0
  3
Dot (.5x) .....................................
 72
   65
 73
    2
 40
3.175
 49
0
 74
    0
 49
-3.175
 74
    0
  0
LTYPE
  5
35
330
5
100
AcDbSymbolTableRecord
100
AcDbLinetypeTableRecord
  2
DOTX2
 70
    0
  3
Dot (2x) .  .  .  .  .  .  .  .  .  .  .  .  .
 72
   65
 73
    2
 40
12.7
 49
0
 74
    0
 49
-12.7
 74
    0
  0
LTYPE
  5
36
330
5
100
AcDbSymbolTableRecord
100
AcDbLinetypeTableRecord
  2
DASHED
 70
    0
  3
Dashed _ _ _ _ _ _ _ _ _ _ _ _ _ _ _ _ _
 72
   65
 73
    2
 40
19.05
 49
12.7
 74
    0
 49
-6.35
 74
    0
  0
LTYPE
  5
37
330
5
100
AcDbSymbolTableRecord
100
AcDbLinetypeTableRecord
  2
DASHEDTINY
 70
    0
  3
Dashed (.15x) _ _ _ _ _ _ _ _ _ _ _ _ _ _ _ _ _
 72
   65
 73
    2
 40
2.8575
 49
1.905
 74
    0
 49
-0.9525
 74
    0
  0
LTYPE
  5
38
330
5
100
AcDbSymbolTableRecord
100
AcDbLinetypeTableRecord
  2
DASHED2
 70
    0
  3
Dashed (.5x) _ _ _ _ _ _ _ _ _ _ _ _ _ _ _ _ _
 72
   65
 73
    2
 40
9.524999999999999
 49
6.35
 74
    0
 49
-3.175
 74
    0
  0
LTYPE
  5
39
330
5
100
AcDbSymbolTableRecord
100
AcDbLinetypeTableRecord
  2
DASHEDX2
 70
    0
  3
Dashed (2x) ____  ____  ____  ____  ____  ___
 72
   65
 73
    2
 40
38.09999999999999
 49
25.4
 74
    0
 49
-12.7
 74
    0
  0
LTYPE
  5
3A
330
5
100
AcDbSymbolTableRecord
100
AcDbLinetypeTableRecord
  2
DASHDOT
 70
    0
  3
Dash dot __ . __ . __ . __ . __ . __ . __ . __
 72
   65
 73
    4
 40
25.4
 49
12.7
 74
    0
 49
-6.35
 74
    0
 49
0
 74
    0
 49
-6.35
 74
    0
  0
LTYPE
  5
3B
330
5
100
AcDbSymbolTableRecord
100
AcDbLinetypeTableRecord
  2
DASHDOTTINY
 70
    0
  3
Dash dot (.15x) _._._._._._._._._._._._._._._.
 72
   65
 73
    4
 40
3.81
 49
1.905
 74
    0
 49
-0.9525
 74
    0
 49
0
 74
    0
 49
-0.9525
 74
    0
  0
LTYPE
  5
3C
330
5
100
AcDbSymbolTableRecord
100
AcDbLinetypeTableRecord
  2
DASHDOT2
 70
    0
  3
Dash dot (.5x) _._._._._._._._._._._._._._._.
 72
   65
 73
    4
 40
12.7
 49
6.35
 74
    0
 49
-3.175
 74
    0
 49
0
 74
    0
 49
-3.175
 74
    0
  0
LTYPE
  5
3D
330
5
100
AcDbSymbolTableRecord
100
AcDbLinetypeTableRecord
  2
DASHDOTX2
 70
    0
  3
Dash dot (2x) ____  .  ____  .  ____  .  ___
 72
   65
 73
    4
 40
50.8
 49
25.4
 74
    0
 49
-12.7
 74
    0
 49
0
 74
    0
 49
-12.7
 74
    0
  0
LTYPE
  5
3E
330
5
100
AcDbSymbolTableRecord
100
AcDbLinetypeTableRecord
  2
DIVIDE
 70
    0
  3
Divide ____ . . ____ . . ____ . . ____ . . ____
 72
   65
 73
    6
 40
31.75
 49
12.7
 74
    0
 49
-6.35
 74
    0
 49
0
 74
    0
 49
-6.35
 74
    0
 49
0
 74
    0
 49
-6.35
 74
    0
  0
LTYPE
  5
3F
330
5
100
AcDbSymbolTableRecord
100
AcDbLinetypeTableRecord
  2
DIVIDETINY
 70
    0
  3
Divide (.15x) __..__..__..__..__..__..__..__.._
 72
   65
 73
    6
 40
4.7625
 49
1.905
 74
    0
 49
-0.9525
 74
    0
 49
0
 74
    0
 49
-0.9525
 74
    0
 49
0
 74
    0
 49
-0.9525
 74
    0
  0
LTYPE
  5
40
330
5
100
AcDbSymbolTableRecord
100
AcDbLinetypeTableRecord
  2
DIVIDE2
 70
    0
  3
Divide (.5x) __..__..__..__..__..__..__..__.._
 72
   65
 73
    6
 40
15.875
 49
6.35
 74
    0
 49
-3.175
 74
    0
 49
0
 74
    0
 49
-3.175
 74
    0
 49
0
 74
    0
 49
-3.175
 74
    0
  0
LTYPE
  5
41
330
5
100
AcDbSymbolTableRecord
100
AcDbLinetypeTableRecord
  2
DIVIDEX2
 70
    0
  3
Divide (2x) ________  .  .  ________  .  .  _
 72
   65
 73
    6
 40
63.5
 49
25.4
 74
    0
 49
-12.7
 74
    0
 49
0
 74
    0
 49
-12.7
 74
    0
 49
0
 74
    0
 49
-12.7
 74
    0
  0
LTYPE
  5
42
330
5
100
AcDbSymbolTableRecord
100
AcDbLinetypeTableRecord
  2
BORDER
 70
    0
  3
Border __ __ . __ __ . __ __ . __ __ . __ __ .
 72
   65
 73
    6
 40
44.45
 49
12.7
 74
    0
 49
-6.35
 74
    0
 49
12.7
 74
    0
 49
-6.35
 74
    0
 49
0
 74
    0
 49
-6.35
 74
    0
  0
LTYPE
  5
43
330
5
100
AcDbSymbolTableRecord
100
AcDbLinetypeTableRecord
  2
BORDERTINY
 70
    0
  3
Border (.15x) __.__.__.__.__.__.__.__.__.__.__.
 72
   65
 73
    6
 40
6.6675
 49
1.905
 74
    0
 49
-0.9525
 74
    0
 49
1.905
 74
    0
 49
-0.9525
 74
    0
 49
0
 74
    0
 49
-0.9525
 74
    0
  0
LTYPE
  5
44
330
5
100
AcDbSymbolTableRecord
100
AcDbLinetypeTableRecord
  2
BORDER2
 70
    0
  3
Border (.5x) __.__.__.__.__.__.__.__.__.__.__.
 72
   65
 73
    6
 40
22.225
 49
6.35
 74
    0
 49
-3.175
 74
    0
 49
6.35
 74
    0
 49
-3.175
 74
    0
 49
0
 74
    0
 49
-3.175
 74
    0
  0
LTYPE
  5
45
330
5
100
AcDbSymbolTableRecord
100
AcDbLinetypeTableRecord
  2
BORDERX2
 70
    0
  3
Border (2x) ____  ____  .  ____  ____  .  ___
 72
   65
 73
    6
 40
88.89999999999999
 49
25.4
 74
    0
 49
-12.7
 74
    0
 49
25.4
 74
    0
 49
-12.7
 74
    0
 49
0
 74
    0
 49
-12.7
 74
    0
  0
LTYPE
  5
46
330
5
100
AcDbSymbolTableRecord
100
AcDbLinetypeTableRecord
  2
CENTER
 70
    0
  3
Center ____ _ ____ _ ____ _ ____ _ ____ _ ____
 72
   65
 73
    4
 40
50.8
 49
31.75
 74
    0
 49
-6.35
 74
    0
 49
6.35
 74
    0
 49
-6.35
 74
    0
  0
LTYPE
  5
47
330
5
100
AcDbSymbolTableRecord
100
AcDbLinetypeTableRecord
  2
CENTERTINY
 70
    0
  3
Center (.15x) ___ _ ___ _ ___ _ ___ _ ___ _ ___
 72
   65
 73
    4
 40
7.62
 49
4.7625
 74
    0
 49
-0.9525
 74
    0
 49
0.9525
 74
    0
 49
-0.9525
 74
    0
  0
LTYPE
  5
48
330
5
100
AcDbSymbolTableRecord
100
AcDbLinetypeTableRecord
  2
CENTER2
 70
    0
  3
Center (.5x) ___ _ ___ _ ___ _ ___ _ ___ _ ___
 72
   65
 73
    4
 40
28.575
 49
19.05
 74
    0
 49
-3.175
 74
    0
 49
3.175
 74
    0
 49
-3.175
 74
    0
  0
LTYPE
  5
49
330
5
100
AcDbSymbolTableRecord
100
AcDbLinetypeTableRecord
  2
CENTERX2
 70
    0
  3
Center (2x) ________  __  ________  __  _____
 72
   65
 73
    4
 40
101.6
 49
63.5
 74
    0
 49
-12.7
 74
    0
 49
12.7
 74
    0
 49
-12.7
 74
    0
  0
ENDTAB
  0
TABLE
  2
LAYER
  5
2
330
0
100
AcDbSymbolTable
 70
    1
  0
LAYER
  5
10
330
2
100
AcDbSymbolTableRecord
100
AcDbLayerTableRecord
  2
0
 70
    0
 62
    7
  6
CONTINUOUS
370
   -3
390
F
  0
LAYER
  5
4A
330
2
100
AcDbSymbolTableRecord
100
AcDbLayerTableRecord
  2
l_green
 70
    0
 62
    3
  6
DASHED
370
   -3
390
F
  0
ENDTAB
  0
TABLE
  2
STYLE
  5
3
330
0
100
AcDbSymbolTable
 70
    3
  0
STYLE
  5
4B
330
2
100
AcDbSymbolTableRecord
100
AcDbTextStyleTableRecord
  2
Standard
 70
    0
 40
0
 41
1
 50
0
 71
    0
 42
1
  3
txt
  4

  0
ENDTAB
  0
TABLE
  2
VIEW
  5
6
330
0
100
AcDbSymbolTable
 70
    0
  0
ENDTAB
  0
TABLE
  2
UCS
  5
7
330
0
100
AcDbSymbolTable
 70
    0
  0
ENDTAB
  0
TABLE
  2
APPID
  5
9
330
0
100
AcDbSymbolTable
 70
    1
  0
APPID
  5
12
330
9
100
AcDbSymbolTableRecord
100
AcDbRegAppTableRecord
  2
ACAD
 70
    0
  0
APPID
  5
4C
330
9
100
AcDbSymbolTableRecord
100
AcDbRegAppTableRecord
  2
LibreCad
 70
    0
  0
ENDTAB
  0
TABLE
  2
DIMSTYLE
  5
A
330
0
100
AcDbSymbolTable
 70
    1
100
AcDbDimStyleTable
 71
    1
  0
DIMSTYLE
105
4D
330
A
100
AcDbSymbolTableRecord
100
AcDbDimStyleTableRecord
  2
Standard
 70
    0
 40
1
 41
2.5
 42
0.625
 43
0.38
 44
1.25
 45
0
 46
0
 47
0
 48
0
 49
1
140
2.5
141
0.09
142
2.5
143
25.4
144
1
145
0
146
1
147
0.625
148
0
 71
    0
 72
    0
 73
    0
 74
    1
 75
    0
 76
    0
 77
    0
 78
    1
 79
    0
170
    0
171
    2
172
    0
173
    0
174
    0
175
    0
176
    0
177
    0
178
    0
179
    0
271
    2
272
    4
273
    2
274
    2
275
    0
276
    0
277
    2
278
    0
279
    0
280
    0
281
    0
282
    0
283
    1
284
    0
285
    0
286
    0
288
    0
289
    3
340
standard
341

371
   -2
372
   -2
  0
ENDTAB
  0
TABLE
  2
BLOCK_RECORD
  5
1
330
0
100
AcDbSymbolTable
 70
    2
  0
BLOCK_RECORD
  5
1F
330
1
100
AcDbSymbolTableRecord
100
AcDbBlockTableRecord
  2
*Model_Space
 70
    0
280
    1
281
    0
  0
BLOCK_RECORD
  5
1E
330
1
100
AcDbSymbolTableRecord
100
AcDbBlockTableRecord
  2
*Paper_Space
 70
    0
280
    1
281
    0
  0
ENDTAB
  0
ENDSEC
  0
SECTION
  2
BLOCKS
  0
BLOCK
  5
20
330
1F
100
AcDbEntity
  8
0
100
AcDbBlockBegin
  2
*Model_Space
 70
    0
 10
0
 20
0
 30
0
  3
*Model_Space
  1

  0
ENDBLK
  5
21
330
1F
100
AcDbEntity
  8
0
100
AcDbBlockEnd
  0
BLOCK
  5
1C
330
1B
100
AcDbEntity
  8
0
100
AcDbBlockBegin
  2
*Paper_Space
 70
    0
 10
0
 20
0
 30
0
  3
*Paper_Space
  1

  0
ENDBLK
  5
1D
330
1F
100
AcDbEntity
  8
0
100
AcDbBlockEnd
  0
ENDSEC
  0
SECTION
  2
ENTITIES
  0
LWPOLYLINE
  5
4E
100
AcDbEntity
  8
0
  6
ByLayer
 62
  256
370
   -1
100
AcDbPolyline
 90
  303
 70
    0
 43
0
 10
8.66667
 20
7.33333
 10
8.63303
 20
7.33333
 10
8.532220000000001
 20
7.32454
 10
8.42188
 20
7.30968
 10
8.39974
 20
7.30664
 10
8.37603
 20
7.36231
 10
8.296709999999999
 20
7.52567
 10
8.178599999999999
 20
7.73563
 10
8.046110000000001
 20
7.93587
 10
7.8999
 20
8.12571
 10
7.74072
 20
8.304360000000001
 10
7.56922
 20
8.47119
 10
7.38613
 20
8.625489999999999
 10
7.19222
 20
8.766540000000001
 10
6.98807
 20
8.89367
 10
6.77447
 20
9.006080000000001
 10
6.55208
 20
9.10314
 10
6.32167
 20
9.184139999999999
 10
6.08382
 20
9.248379999999999
 10
5.83942
 20
9.29514
 10
5.58897
 20
9.32368
 10
5.39725
 20
9.33333
 10
5.33333
 20
9.33333
 10
5.26937
 20
9.33333
 10
5.07758
 20
9.32368
 10
4.82715
 20
9.29514
 10
4.58268
 20
9.248379999999999
 10
4.34489
 20
9.184139999999999
 10
4.11447
 20
9.10314
 10
3.89214
 20
9.006080000000001
 10
3.6786
 20
8.89367
 10
3.4745
 20
8.766540000000001
 10
3.2806
 20
8.625489999999999
 10
3.0975
 20
8.47119
 10
2.92606
 20
8.304360000000001
 10
2.76682
 20
8.12571
 10
2.62056
 20
7.93587
 10
2.48796
 20
7.73563
 10
2.36974
 20
7.52567
 10
2.29036
 20
7.36225
 10
2.2666
 20
7.30664
 10
2.24463
 20
7.30968
 10
2.1346
 20
7.32454
 10
2.03364
 20
7.33333
 10
2
 20
7.33333
 10
1.94883
 20
7.33333
 10
1.79546
 20
7.32303
 10
1.59685
 20
7.29275
 10
1.40517
 20
7.24349
 10
1.22135
 20
7.17622
 10
1.04655
 20
7.09201
 10
0.881619
 20
6.99186
 10
0.727701
 20
6.87674
 10
0.585667
 20
6.74767
 10
0.456597
 20
6.60563
 10
0.341471
 20
6.45171
 10
0.241319
 20
6.28678
 10
0.157118
 20
6.11199
 10
0.0898438
 20
5.92817
 10
0.0405817
 20
5.73649
 10
0.0103082
 20
5.53787
 10
0
 20
5.3845
 10
0
 20
5.33333
 10
0
 20
5.28222
 10
0.0103082
 20
5.12885
 10
0.0405817
 20
4.93024
 10
0.0898438
 20
4.73856
 10
0.157118
 20
4.55474
 10
0.241319
 20
4.37993
 10
0.341471
 20
4.215
 10
0.456597
 20
4.06108
 10
0.585667
 20
3.91906
 10
0.727701
 20
3.78999
 10
0.881619
 20
3.67486
 10
1.04655
 20
3.57471
 10
1.22135
 20
3.4905
 10
1.40517
 20
3.42324
 10
1.59685
 20
3.37397
 10
1.79546
 20
3.34369
 10
1.94883
 20
3.33333
 10
2
 20
3.33333
 10
2.07796
 20
3.33333
 10
2.31196
 20
3.36344
 10
2.5599
 20
3.42546
 10
2.60807
 20
3.4414
 10
2.64128
 20
3.40468
 10
2.74729
 20
3.30012
 10
2.89817
 20
3.17156
 10
3.05985
 20
3.05632
 10
3.23139
 20
2.95508
 10
3.412
 20
2.86854
 10
3.60092
 20
2.79725
 10
3.79715
 20
2.74192
 10
3.94894
 20
2.71067
 10
4
 20
2.70313
 10
4
 20
3.38282
 10
3.95176
 20
3.39285
 10
3.80946
 20
3.43397
 10
3.62842
 20
3.50543
 10
3.45839
 20
3.59619
 10
3.30083
 20
3.70503
 10
3.15739
 20
3.83078
 10
3.02951
 20
3.97233
 10
2.91878
 20
4.12853
 10
2.84717
 20
4.25456
 10
2.82682
 20
4.29818
 10
2.78424
 20
4.26389
 10
2.64589
 20
4.17415
 10
2.44613
 20
4.08024
 10
2.22999
 20
4.02078
 10
2.05746
 20
4
 10
2
 20
4
 10
1.96593
 20
4
 10
1.86372
 20
4.00694
 10
1.73139
 20
4.02713
 10
1.60362
 20
4.06
 10
1.48112
 20
4.10493
 10
1.36458
 20
4.16108
 10
1.25467
 20
4.22792
 10
1.15202
 20
4.30474
 10
1.05729
 20
4.39079
 10
0.9712460000000001
 20
4.48551
 10
0.894476
 20
4.58822
 10
0.827636
 20
4.69814
 10
0.771485
 20
4.81467
 10
0.726617
 20
4.93712
 10
0.693739
 20
5.06483
 10
0.673503
 20
5.19715
 10
0.666667
 20
5.29932
 10
0.666667
 20
5.33333
 10
0.666667
 20
5.3674
 10
0.673503
 20
5.46962
 10
0.693739
 20
5.60194
 10
0.726617
 20
5.72971
 10
0.771485
 20
5.85221
 10
0.827636
 20
5.96875
 10
0.894476
 20
6.07867
 10
0.9712460000000001
 20
6.18132
 10
1.05729
 20
6.27604
 10
1.15202
 20
6.36208
 10
1.25467
 20
6.43886
 10
1.36458
 20
6.50569
 10
1.48112
 20
6.56185
 10
1.60362
 20
6.60672
 10
1.73139
 20
6.6396
 10
1.86372
 20
6.65983
 10
1.96593
 20
6.66667
 10
2
 20
6.66667
 10
2.04833
 20
6.66667
 10
2.19342
 20
6.65235
 10
2.37776
 20
6.611
 10
2.55132
 20
6.54514
 10
2.67389
 20
6.48188
 10
2.71257
 20
6.45736
 10
2.72265
 20
6.51568
 10
2.76346
 20
6.68875
 10
2.83376
 20
6.91211
 10
2.92253
 20
7.12663
 10
3.02886
 20
7.33132
 10
3.15181
 20
7.52513
 10
3.29042
 20
7.70719
 10
3.44379
 20
7.87646
 10
3.61094
 20
8.03201
 10
3.79096
 20
8.1729
 10
3.98296
 20
8.29813
 10
4.18593
 20
8.40668
 10
4.39899
 20
8.497719999999999
 10
4.62121
 20
8.570209999999999
 10
4.85161
 20
8.623150000000001
 10
5.08931
 20
8.65565
 10
5.27229
 20
8.66667
 10
5.33333
 20
8.66667
 10
5.39432
 20
8.66667
 10
5.57736
 20
8.6556
 10
5.81489
 20
8.62294
 10
6.04492
 20
8.56976
 10
6.26654
 20
8.49696
 10
6.47889
 20
8.4056
 10
6.68099
 20
8.296559999999999
 10
6.87207
 20
8.17085
 10
7.05111
 20
8.02946
 10
7.21724
 20
7.87332
 10
7.36951
 20
7.7035
 10
7.50711
 20
7.52089
 10
7.62907
 20
7.3265
 10
7.73454
 20
7.12131
 10
7.82254
 20
6.90625
 10
7.89225
 20
6.68235
 10
7.93261
 20
6.50896
 10
7.94271
 20
6.45053
 10
7.98178
 20
6.47597
 10
8.10618
 20
6.54144
 10
8.28271
 20
6.60938
 10
8.47021
 20
6.65196
 10
8.617509999999999
 20
6.66667
 10
8.66667
 20
6.66667
 10
8.70068
 20
6.66667
 10
8.802849999999999
 20
6.65983
 10
8.935169999999999
 20
6.6396
 10
9.06287
 20
6.60672
 10
9.18533
 20
6.56185
 10
9.30186
 20
6.50569
 10
9.41178
 20
6.43886
 10
9.51449
 20
6.36208
 10
9.609209999999999
 20
6.27604
 10
9.695259999999999
 20
6.18132
 10
9.772080000000001
 20
6.07867
 10
9.83892
 20
5.96875
 10
9.89507
 20
5.85221
 10
9.94
 20
5.72971
 10
9.97288
 20
5.60194
 10
9.99306
 20
5.46962
 10
10
 20
5.3674
 10
10
 20
5.33333
 10
10
 20
5.29932
 10
9.99306
 20
5.19715
 10
9.97288
 20
5.06483
 10
9.94
 20
4.93712
 10
9.89507
 20
4.81467
 10
9.83892
 20
4.69814
 10
9.772080000000001
 20
4.58822
 10
9.695259999999999
 20
4.48551
 10
9.609209999999999
 20
4.39079
 10
9.51449
 20
4.30474
 10
9.41178
 20
4.22792
 10
9.30186
 20
4.16108
 10
9.18533
 20
4.10493
 10
9.06287
 20
4.06
 10
8.935169999999999
 20
4.02713
 10
8.802849999999999
 20
4.00694
 10
8.70068
 20
4
 10
8.66667
 20
4
 10
8.62744
 20
4
 10
8.509930000000001
 20
4.01074
 10
8.383139999999999
 20
4.03321
 10
8.35807
 20
4.03907
 10
8.32992
 20
3.99929
 10
8.23617
 20
3.8865
 10
8.097709999999999
 20
3.74918
 10
7.94401
 20
3.62869
 10
7.77669
 20
3.52653
 10
7.59711
 20
3.44439
 10
7.40679
 20
3.38374
 10
7.20731
 20
3.34625
 10
7.05181
 20
3.33333
 10
7
 20
3.33333
 10
6.95763
 20
3.33333
 10
6.83062
 20
3.34489
 10
6.69368
 20
3.36882
 10
6.66667
 20
3.375
 10
6.66667
 20
2.69857
 10
6.69385
 20
2.69417
 10
6.92344
 20
2.66667
 10
7
 20
2.66667
 10
7.05897
 20
2.66667
 10
7.23594
 20
2.67854
 10
7.46506
 20
2.71326
 10
7.68625
 20
2.76975
 10
7.89844
 20
2.84679
 10
8.10042
 20
2.94331
 10
8.29124
 20
3.05811
 10
8.469720000000001
 20
3.19
 10
8.595319999999999
 20
3.2991
 10
8.63476
 20
3.33789
 10
8.63753
 20
3.33772
 10
8.65935
 20
3.33333
 10
8.66667
 20
3.33333
 10
8.717779999999999
 20
3.33333
 10
8.87115
 20
3.34369
 10
9.06976
 20
3.37397
 10
9.26144
 20
3.42324
 10
9.445259999999999
 20
3.4905
 10
9.62007
 20
3.57471
 10
9.785
 20
3.67486
 10
9.93892
 20
3.78999
 10
10.0809
 20
3.91906
 10
10.21
 20
4.06108
 10
10.3251
 20
4.215
 10
10.4253
 20
4.37993
 10
10.5095
 20
4.55474
 10
10.5768
 20
4.73856
 10
10.626
 20
4.93024
 10
10.6563
 20
5.12885
 10
10.6667
 20
5.28222
 10
10.6667
 20
5.33333
 10
10.6667
 20
5.3845
 10
10.6563
 20
5.53787
 10
10.626
 20
5.73649
 10
10.5768
 20
5.92817
 10
10.5095
 20
6.11199
 10
10.4253
 20
6.28678
 10
10.3251
 20
6.45171
 10
10.21
 20
6.60563
 10
10.0809
 20
6.74767
 10
9.93892
 20
6.87674
 10
9.785
 20
6.99186
 10
9.62007
 20
7.09201
 10
9.445259999999999
 20
7.17622
 10
9.26144
 20
7.24349
 10
9.06976
 20
7.29275
 10
8.87115
 20
7.32303
 10
8.717779999999999
 20
7.33333
 10
8.66667
 20
7.33333
  0
LWPOLYLINE
  5
4F
100
AcDbEntity
  8
0
  6
ByLayer
 62
  256
370
   -1
100
AcDbPolyline
 90
    8
 70
    0
 43
0
 10
6
 20
5.33333
 10
4.66667
 20
5.33333
 10
4.66667
 20
2
 10
3.33333
 20
2
 10
5.33333
 20
0
 10
7.33333
 20
2
 10
6
 20
2
 10
6
 20
5.33333
  0
LWPOLYLINE
  5
50
100
AcDbEntity
  8
0
  6
ByLayer
 62
  256
370
   -1
100
AcDbPolyline
 90
  303
 70
    0
 43
0
 10
19.33337
 20
7.33333
 10
19.29973
 20
7.33333
 10
19.19892
 20
7.32454
 10
19.08858
 20
7.30968
 10
19.06644
 20
7.30664
 10
19.04273
 20
7.36231
 10
18.96341
 20
7.52567
 10
18.8453
 20
7.73563
 10
18.71281
 20
7.93587
 10
18.5666
 20
8.12571
 10
18.40742
 20
8.304360000000001
 10
18.23592
 20
8.47119
 10
18.05283
 20
8.625489999999999
 10
17.85892
 20
8.766540000000001
 10
17.65477
 20
8.89367
 10
17.44117
 20
9.006080000000001
 10
17.21878
 20
9.10314
 10
16.98837
 20
9.184139999999999
 10
16.75052
 20
9.248379999999999
 10
16.50612
 20
9.29514
 10
16.25567
 20
9.32368
 10
16.06395
 20
9.33333
 10
16.00003
 20
9.33333
 10
15.93607
 20
9.33333
 10
15.74428
 20
9.32368
 10
15.49385
 20
9.29514
 10
15.24938
 20
9.248379999999999
 10
15.01159
 20
9.184139999999999
 10
14.78117
 20
9.10314
 10
14.55884
 20
9.006080000000001
 10
14.3453
 20
8.89367
 10
14.1412
 20
8.766540000000001
 10
13.9473
 20
8.625489999999999
 10
13.7642
 20
8.47119
 10
13.59276
 20
8.304360000000001
 10
13.43352
 20
8.12571
 10
13.28726
 20
7.93587
 10
13.15466
 20
7.73563
 10
13.03644
 20
7.52567
 10
12.95706
 20
7.36225
 10
12.9333
 20
7.30664
 10
12.91133
 20
7.30968
 10
12.8013
 20
7.32454
 10
12.70034
 20
7.33333
 10
12.6667
 20
7.33333
 10
12.61553
 20
7.33333
 10
12.46216
 20
7.32303
 10
12.26355
 20
7.29275
 10
12.07187
 20
7.24349
 10
11.88805
 20
7.17622
 10
11.71325
 20
7.09201
 10
11.548319
 20
6.99186
 10
11.394401
 20
6.87674
 10
11.252367
 20
6.74767
 10
11.123297
 20
6.60563
 10
11.008171
 20
6.45171
 10
10.908019
 20
6.28678
 10
10.823818
 20
6.11199
 10
10.7565438
 20
5.92817
 10
10.7072817
 20
5.73649
 10
10.6770082
 20
5.53787
 10
10.6667
 20
5.3845
 10
10.6667
 20
5.33333
 10
10.6667
 20
5.28222
 10
10.6770082
 20
5.12885
 10
10.7072817
 20
4.93024
 10
10.7565438
 20
4.73856
 10
10.823818
 20
4.55474
 10
10.908019
 20
4.37993
 10
11.008171
 20
4.215
 10
11.123297
 20
4.06108
 10
11.252367
 20
3.91906
 10
11.394401
 20
3.78999
 10
11.548319
 20
3.67486
 10
11.71325
 20
3.57471
 10
11.88805
 20
3.4905
 10
12.07187
 20
3.42324
 10
12.26355
 20
3.37397
 10
12.46216
 20
3.34369
 10
12.61553
 20
3.33333
 10
12.6667
 20
3.33333
 10
12.74466
 20
3.33333
 10
12.97866
 20
3.36344
 10
13.2266
 20
3.42546
 10
13.27477
 20
3.4414
 10
13.30798
 20
3.40468
 10
13.41399
 20
3.30012
 10
13.56487
 20
3.17156
 10
13.72655
 20
3.05632
 10
13.89809
 20
2.95508
 10
14.0787
 20
2.86854
 10
14.26762
 20
2.79725
 10
14.46385
 20
2.74192
 10
14.61564
 20
2.71067
 10
14.6667
 20
2.70313
 10
14.6667
 20
3.38282
 10
14.61846
 20
3.39285
 10
14.47616
 20
3.43397
 10
14.29512
 20
3.50543
 10
14.12509
 20
3.59619
 10
13.96753
 20
3.70503
 10
13.82409
 20
3.83078
 10
13.69621
 20
3.97233
 10
13.58548
 20
4.12853
 10
13.51387
 20
4.25456
 10
13.49352
 20
4.29818
 10
13.45094
 20
4.26389
 10
13.31259
 20
4.17415
 10
13.11283
 20
4.08024
 10
12.89669
 20
4.02078
 10
12.72416
 20
4
 10
12.6667
 20
4
 10
12.63263
 20
4
 10
12.53042
 20
4.00694
 10
12.39809
 20
4.02713
 10
12.27032
 20
4.06
 10
12.14782
 20
4.10493
 10
12.03128
 20
4.16108
 10
11.92137
 20
4.22792
 10
11.81872
 20
4.30474
 10
11.72399
 20
4.39079
 10
11.637946
 20
4.48551
 10
11.561176
 20
4.58822
 10
11.494336
 20
4.69814
 10
11.438185
 20
4.81467
 10
11.393317
 20
4.93712
 10
11.360439
 20
5.06483
 10
11.340203
 20
5.19715
 10
11.333367
 20
5.29932
 10
11.333367
 20
5.33333
 10
11.333367
 20
5.3674
 10
11.340203
 20
5.46962
 10
11.360439
 20
5.60194
 10
11.393317
 20
5.72971
 10
11.438185
 20
5.85221
 10
11.494336
 20
5.96875
 10
11.561176
 20
6.07867
 10
11.637946
 20
6.18132
 10
11.72399
 20
6.27604
 10
11.81872
 20
6.36208
 10
11.92137
 20
6.43886
 10
12.03128
 20
6.50569
 10
12.14782
 20
6.56185
 10
12.27032
 20
6.60672
 10
12.39809
 20
6.6396
 10
12.53042
 20
6.65983
 10
12.63263
 20
6.66667
 10
12.6667
 20
6.66667
 10
12.71503
 20
6.66667
 10
12.86012
 20
6.65235
 10
13.04446
 20
6.611
 10
13.21802
 20
6.54514
 10
13.34059
 20
6.48188
 10
13.37927
 20
6.45736
 10
13.38935
 20
6.51568
 10
13.43016
 20
6.68875
 10
13.50046
 20
6.91211
 10
13.58923
 20
7.12663
 10
13.69556
 20
7.33132
 10
13.81851
 20
7.52513
 10
13.95712
 20
7.70719
 10
14.11049
 20
7.87646
 10
14.27764
 20
8.03201
 10
14.45766
 20
8.1729
 10
14.64966
 20
8.29813
 10
14.85263
 20
8.40668
 10
15.06569
 20
8.497719999999999
 10
15.28791
 20
8.570209999999999
 10
15.51831
 20
8.623150000000001
 10
15.75601
 20
8.65565
 10
15.93899
 20
8.66667
 10
16.00003
 20
8.66667
 10
16.06102
 20
8.66667
 10
16.24406
 20
8.6556
 10
16.48159
 20
8.62294
 10
16.71162
 20
8.56976
 10
16.93324
 20
8.49696
 10
17.14559
 20
8.4056
 10
17.34769
 20
8.296559999999999
 10
17.53877
 20
8.17085
 10
17.71781
 20
8.02946
 10
17.88394
 20
7.87332
 10
18.03621
 20
7.7035
 10
18.17381
 20
7.52089
 10
18.29577
 20
7.3265
 10
18.40124
 20
7.12131
 10
18.48924
 20
6.90625
 10
18.55895
 20
6.68235
 10
18.59931
 20
6.50896
 10
18.60941
 20
6.45053
 10
18.64848
 20
6.47597
 10
18.77288
 20
6.54144
 10
18.94941
 20
6.60938
 10
19.13691
 20
6.65196
 10
19.28421
 20
6.66667
 10
19.33337
 20
6.66667
 10
19.36738
 20
6.66667
 10
19.46955
 20
6.65983
 10
19.60187
 20
6.6396
 10
19.72957
 20
6.60672
 10
19.85203
 20
6.56185
 10
19.96856
 20
6.50569
 10
20.07848
 20
6.43886
 10
20.18119
 20
6.36208
 10
20.27591
 20
6.27604
 10
20.36196
 20
6.18132
 10
20.43878
 20
6.07867
 10
20.50562
 20
5.96875
 10
20.56177
 20
5.85221
 10
20.6067
 20
5.72971
 10
20.63958
 20
5.60194
 10
20.65976
 20
5.46962
 10
20.6667
 20
5.3674
 10
20.6667
 20
5.33333
 10
20.6667
 20
5.29932
 10
20.65976
 20
5.19715
 10
20.63958
 20
5.06483
 10
20.6067
 20
4.93712
 10
20.56177
 20
4.81467
 10
20.50562
 20
4.69814
 10
20.43878
 20
4.58822
 10
20.36196
 20
4.48551
 10
20.27591
 20
4.39079
 10
20.18119
 20
4.30474
 10
20.07848
 20
4.22792
 10
19.96856
 20
4.16108
 10
19.85203
 20
4.10493
 10
19.72957
 20
4.06
 10
19.60187
 20
4.02713
 10
19.46955
 20
4.00694
 10
19.36738
 20
4
 10
19.33337
 20
4
 10
19.29414
 20
4
 10
19.17663
 20
4.01074
 10
19.04984
 20
4.03321
 10
19.02477
 20
4.03907
 10
18.99662
 20
3.99929
 10
18.90287
 20
3.8865
 10
18.76441
 20
3.74918
 10
18.61071
 20
3.62869
 10
18.44339
 20
3.52653
 10
18.26381
 20
3.44439
 10
18.07349
 20
3.38374
 10
17.87401
 20
3.34625
 10
17.71851
 20
3.33333
 10
17.6667
 20
3.33333
 10
17.62433
 20
3.33333
 10
17.49732
 20
3.34489
 10
17.36038
 20
3.36882
 10
17.33337
 20
3.375
 10
17.33337
 20
2.69857
 10
17.36055
 20
2.69417
 10
17.59014
 20
2.66667
 10
17.6667
 20
2.66667
 10
17.72567
 20
2.66667
 10
17.90264
 20
2.67854
 10
18.13176
 20
2.71326
 10
18.35295
 20
2.76975
 10
18.56514
 20
2.84679
 10
18.76712
 20
2.94331
 10
18.95794
 20
3.05811
 10
19.13642
 20
3.19
 10
19.26202
 20
3.2991
 10
19.30146
 20
3.33789
 10
19.30423
 20
3.33772
 10
19.32605
 20
3.33333
 10
19.33337
 20
3.33333
 10
19.38448
 20
3.33333
 10
19.53785
 20
3.34369
 10
19.73646
 20
3.37397
 10
19.92814
 20
3.42324
 10
20.11196
 20
3.4905
 10
20.28677
 20
3.57471
 10
20.4517
 20
3.67486
 10
20.60562
 20
3.78999
 10
20.7476
 20
3.91906
 10
20.8767
 20
4.06108
 10
20.9918
 20
4.215
 10
21.092
 20
4.37993
 10
21.1762
 20
4.55474
 10
21.2435
 20
4.73856
 10
21.2927
 20
4.93024
 10
21.323
 20
5.12885
 10
21.3334
 20
5.28222
 10
21.3334
 20
5.33333
 10
21.3334
 20
5.3845
 10
21.323
 20
5.53787
 10
21.2927
 20
5.73649
 10
21.2435
 20
5.92817
 10
21.1762
 20
6.11199
 10
21.092
 20
6.28678
 10
20.9918
 20
6.45171
 10
20.8767
 20
6.60563
 10
20.7476
 20
6.74767
 10
20.60562
 20
6.87674
 10
20.4517
 20
6.99186
 10
20.28677
 20
7.09201
 10
20.11196
 20
7.17622
 10
19.92814
 20
7.24349
 10
19.73646
 20
7.29275
 10
19.53785
 20
7.32303
 10
19.38448
 20
7.33333
 10
19.33337
 20
7.33333
  0
LWPOLYLINE
  5
51
100
AcDbEntity
  8
0
  6
ByLayer
 62
  256
370
   -1
100
AcDbPolyline
 90
    8
 70
    0
 43
0
 10
16.6667
 20
5.33333
 10
15.33337
 20
5.33333
 10
15.33337
 20
2
 10
14.00003
 20
2
 10
16.00003
 20
0
 10
18.00003
 20
2
 10
16.6667
 20
2
 10
16.6667
 20
5.33333
  0
LINE
  5
52
100
AcDbEntity
  8
l_green
  6
ByLayer
 62
  256
370
   -1
100
AcDbLine
 10
0
 20
9.33333
 11
10.6667
 21
9.33333
  0
LINE
  5
53
100
AcDbEntity
  8
l_green
  6
ByLayer
 62
  256
370
   -1
100
AcDbLine
 10
0
 20
0
 11
10.6667
 21
0
  0
LINE
  5
54
100
AcDbEntity
  8
l_green
  6
ByLayer
 62
  256
370
   -1
100
AcDbLine
 10
0
 20
9.33333
 11
0
 21
0
  0
LINE
  5
55
100
AcDbEntity
  8
l_green
  6
ByLayer
 62
  256
370
   -1
100
AcDbLine
 10
10.6667
 20
9.33333
 11
10.6667
 21
0
  0
ENDSEC
  0
SECTION
  2
OBJECTS
  0
DICTIONARY
  5
C
330
0
100
AcDbDictionary
281
    1
  3
ACAD_GROUP
350
D
  0
DICTIONARY
  5
D
330
C
100
AcDbDictionary
281
    1
  0
ENDSEC
  0
EOF
