0
SECTION
2
HEADER
9
$INSUNITS
70
0
0
ENDSEC
0
SECTION
2
TABLES
0
TABLE
2
LTYPE
0
LTYPE
72
65
70
64
2
CONTINUOUS
3
______
73
0
40
0
0
LTYPE
72
65
70
64
2
DASHED
3
_ _ _ 
73
2
40
10
49
5
49
-5
0
LTYPE
72
65
70
64
2
DOTTED
3
. . . 
73
2
40
5
49
0
49
-5
0
ENDTAB
0
TABLE
2
LAYER
0
LAYER
70
64
2
0
62
7
6
CONTINUOUS
0
LAYER
70
64
2
l_green
62
3
6
DASHED
0
ENDTAB
0
ENDSEC
0
SECTION
2
ENTITIES
0
POLYLINE
8
0
66
1
70
0
0
VERTEX
8
0
70
0
10
8.66667
20
7.33333
0
VERTEX
8
0
70
0
10
8.63303
20
7.33333
0
VERTEX
8
0
70
0
10
8.53222
20
7.32454
0
VERTEX
8
0
70
0
10
8.42188
20
7.30968
0
VERTEX
8
0
70
0
10
8.39974
20
7.30664
0
VERTEX
8
0
70
0
10
8.37603
20
7.36231
0
VERTEX
8
0
70
0
10
8.29671
20
7.52567
0
VERTEX
8
0
70
0
10
8.1786
20
7.73563
0
VERTEX
8
0
70
0
10
8.04611
20
7.93587
0
VERTEX
8
0
70
0
10
7.8999
20
8.12571
0
VERTEX
8
0
70
0
10
7.74072
20
8.30436
0
VERTEX
8
0
70
0
10
7.56922
20
8.47119
0
VERTEX
8
0
70
0
10
7.38613
20
8.62549
0
VERTEX
8
0
70
0
10
7.19222
20
8.76654
0
VERTEX
8
0
70
0
10
6.98807
20
8.89367
0
VERTEX
8
0
70
0
10
6.77447
20
9.00608
0
VERTEX
8
0
70
0
10
6.55208
20
9.10314
0
VERTEX
8
0
70
0
10
6.32167
20
9.18414
0
VERTEX
8
0
70
0
10
6.08382
20
9.24838
0
VERTEX
8
0
70
0
10
5.83942
20
9.29514
0
VERTEX
8
0
70
0
10
5.58897
20
9.32368
0
VERTEX
8
0
70
0
10
5.39725
20
9.33333
0
VERTEX
8
0
70
0
10
5.33333
20
9.33333
0
VERTEX
8
0
70
0
10
5.26937
20
9.33333
0
VERTEX
8
0
70
0
10
5.07758
20
9.32368
0
VERTEX
8
0
70
0
10
4.82715
20
9.29514
0
VERTEX
8
0
70
0
10
4.58268
20
9.24838
0
VERTEX
8
0
70
0
10
4.34489
20
9.18414
0
VERTEX
8
0
70
0
10
4.11447
20
9.10314
0
VERTEX
8
0
70
0
10
3.89214
20
9.00608
0
VERTEX
8
0
70
0
10
3.6786
20
8.89367
0
VERTEX
8
0
70
0
10
3.4745
20
8.76654
0
VERTEX
8
0
70
0
10
3.2806
20
8.62549
0
VERTEX
8
0
70
0
10
3.0975
20
8.47119
0
VERTEX
8
0
70
0
10
2.92606
20
8.30436
0
VERTEX
8
0
70
0
10
2.76682
20
8.12571
0
VERTEX
8
0
70
0
10
2.62056
20
7.93587
0
VERTEX
8
0
70
0
10
2.48796
20
7.73563
0
VERTEX
8
0
70
0
10
2.36974
20
7.52567
0
VERTEX
8
0
70
0
10
2.29036
20
7.36225
0
VERTEX
8
0
70
0
10
2.2666
20
7.30664
0
VERTEX
8
0
70
0
10
2.24463
20
7.30968
0
VERTEX
8
0
70
0
10
2.1346
20
7.32454
0
VERTEX
8
0
70
0
10
2.03364
20
7.33333
0
VERTEX
8
0
70
0
10
2
20
7.33333
0
VERTEX
8
0
70
0
10
1.94883
20
7.33333
0
VERTEX
8
0
70
0
10
1.79546
20
7.32303
0
VERTEX
8
0
70
0
10
1.59685
20
7.29275
0
VERTEX
8
0
70
0
10
1.40517
20
7.24349
0
VERTEX
8
0
70
0
10
1.22135
20
7.17622
0
VERTEX
8
0
70
0
10
1.04655
20
7.09201
0
VERTEX
8
0
70
0
10
0.881619
20
6.99186
0
VERTEX
8
0
70
0
10
0.727701
20
6.87674
0
VERTEX
8
0
70
0
10
0.585667
20
6.74767
0
VERTEX
8
0
70
0
10
0.456597
20
6.60563
0
VERTEX
8
0
70
0
10
0.341471
20
6.45171
0
VERTEX
8
0
70
0
10
0.241319
20
6.28678
0
VERTEX
8
0
70
0
10
0.157118
20
6.11199
0
VERTEX
8
0
70
0
10
0.0898438
20
5.92817
0
VERTEX
8
0
70
0
10
0.0405817
20
5.73649
0
VERTEX
8
0
70
0
10
0.0103082
20
5.53787
0
VERTEX
8
0
70
0
10
0
20
5.3845
0
VERTEX
8
0
70
0
10
0
20
5.33333
0
VERTEX
8
0
70
0
10
0
20
5.28222
0
VERTEX
8
0
70
0
10
0.0103082
20
5.12885
0
VERTEX
8
0
70
0
10
0.0405817
20
4.93024
0
VERTEX
8
0
70
0
10
0.0898438
20
4.73856
0
VERTEX
8
0
70
0
10
0.157118
20
4.55474
0
VERTEX
8
0
70
0
10
0.241319
20
4.37993
0
VERTEX
8
0
70
0
10
0.341471
20
4.215
0
VERTEX
8
0
70
0
10
0.456597
20
4.06108
0
VERTEX
8
0
70
0
10
0.585667
20
3.91906
0
VERTEX
8
0
70
0
10
0.727701
20
3.78999
0
VERTEX
8
0
70
0
10
0.881619
20
3.67486
0
VERTEX
8
0
70
0
10
1.04655
20
3.57471
0
VERTEX
8
0
70
0
10
1.22135
20
3.4905
0
VERTEX
8
0
70
0
10
1.40517
20
3.42324
0
VERTEX
8
0
70
0
10
1.59685
20
3.37397
0
VERTEX
8
0
70
0
10
1.79546
20
3.34369
0
VERTEX
8
0
70
0
10
1.94883
20
3.33333
0
VERTEX
8
0
70
0
10
2
20
3.33333
0
VERTEX
8
0
70
0
10
2.07796
20
3.33333
0
VERTEX
8
0
70
0
10
2.31196
20
3.36344
0
VERTEX
8
0
70
0
10
2.5599
20
3.42546
0
VERTEX
8
0
70
0
10
2.60807
20
3.4414
0
VERTEX
8
0
70
0
10
2.64128
20
3.40468
0
VERTEX
8
0
70
0
10
2.74729
20
3.30012
0
VERTEX
8
0
70
0
10
2.89817
20
3.17156
0
VERTEX
8
0
70
0
10
3.05985
20
3.05632
0
VERTEX
8
0
70
0
10
3.23139
20
2.95508
0
VERTEX
8
0
70
0
10
3.412
20
2.86854
0
VERTEX
8
0
70
0
10
3.60092
20
2.79725
0
VERTEX
8
0
70
0
10
3.79715
20
2.74192
0
VERTEX
8
0
70
0
10
3.94894
20
2.71067
0
VERTEX
8
0
70
0
10
4
20
2.70313
0
VERTEX
8
0
70
0
10
4
20
3.38282
0
VERTEX
8
0
70
0
10
3.95176
20
3.39285
0
VERTEX
8
0
70
0
10
3.80946
20
3.43397
0
VERTEX
8
0
70
0
10
3.62842
20
3.50543
0
VERTEX
8
0
70
0
10
3.45839
20
3.59619
0
VERTEX
8
0
70
0
10
3.30083
20
3.70503
0
VERTEX
8
0
70
0
10
3.15739
20
3.83078
0
VERTEX
8
0
70
0
10
3.02951
20
3.97233
0
VERTEX
8
0
70
0
10
2.91878
20
4.12853
0
VERTEX
8
0
70
0
10
2.84717
20
4.25456
0
VERTEX
8
0
70
0
10
2.82682
20
4.29818
0
VERTEX
8
0
70
0
10
2.78424
20
4.26389
0
VERTEX
8
0
70
0
10
2.64589
20
4.17415
0
VERTEX
8
0
70
0
10
2.44613
20
4.08024
0
VERTEX
8
0
70
0
10
2.22999
20
4.02078
0
VERTEX
8
0
70
0
10
2.05746
20
4
0
VERTEX
8
0
70
0
10
2
20
4
0
VERTEX
8
0
70
0
10
1.96593
20
4
0
VERTEX
8
0
70
0
10
1.86372
20
4.00694
0
VERTEX
8
0
70
0
10
1.73139
20
4.02713
0
VERTEX
8
0
70
0
10
1.60362
20
4.06
0
VERTEX
8
0
70
0
10
1.48112
20
4.10493
0
VERTEX
8
0
70
0
10
1.36458
20
4.16108
0
VERTEX
8
0
70
0
10
1.25467
20
4.22792
0
VERTEX
8
0
70
0
10
1.15202
20
4.30474
0
VERTEX
8
0
70
0
10
1.05729
20
4.39079
0
VERTEX
8
0
70
0
10
0.971246
20
4.48551
0
VERTEX
8
0
70
0
10
0.894476
20
4.58822
0
VERTEX
8
0
70
0
10
0.827636
20
4.69814
0
VERTEX
8
0
70
0
10
0.771485
20
4.81467
0
VERTEX
8
0
70
0
10
0.726617
20
4.93712
0
VERTEX
8
0
70
0
10
0.693739
20
5.06483
0
VERTEX
8
0
70
0
10
0.673503
20
5.19715
0
VERTEX
8
0
70
0
10
0.666667
20
5.29932
0
VERTEX
8
0
70
0
10
0.666667
20
5.33333
0
VERTEX
8
0
70
0
10
0.666667
20
5.3674
0
VERTEX
8
0
70
0
10
0.673503
20
5.46962
0
VERTEX
8
0
70
0
10
0.693739
20
5.60194
0
VERTEX
8
0
70
0
10
0.726617
20
5.72971
0
VERTEX
8
0
70
0
10
0.771485
20
5.85221
0
VERTEX
8
0
70
0
10
0.827636
20
5.96875
0
VERTEX
8
0
70
0
10
0.894476
20
6.07867
0
VERTEX
8
0
70
0
10
0.971246
20
6.18132
0
VERTEX
8
0
70
0
10
1.05729
20
6.27604
0
VERTEX
8
0
70
0
10
1.15202
20
6.36208
0
VERTEX
8
0
70
0
10
1.25467
20
6.43886
0
VERTEX
8
0
70
0
10
1.36458
20
6.50569
0
VERTEX
8
0
70
0
10
1.48112
20
6.56185
0
VERTEX
8
0
70
0
10
1.60362
20
6.60672
0
VERTEX
8
0
70
0
10
1.73139
20
6.6396
0
VERTEX
8
0
70
0
10
1.86372
20
6.65983
0
VERTEX
8
0
70
0
10
1.96593
20
6.66667
0
VERTEX
8
0
70
0
10
2
20
6.66667
0
VERTEX
8
0
70
0
10
2.04833
20
6.66667
0
VERTEX
8
0
70
0
10
2.19342
20
6.65235
0
VERTEX
8
0
70
0
10
2.37776
20
6.611
0
VERTEX
8
0
70
0
10
2.55132
20
6.54514
0
VERTEX
8
0
70
0
10
2.67389
20
6.48188
0
VERTEX
8
0
70
0
10
2.71257
20
6.45736
0
VERTEX
8
0
70
0
10
2.72265
20
6.51568
0
VERTEX
8
0
70
0
10
2.76346
20
6.68875
0
VERTEX
8
0
70
0
10
2.83376
20
6.91211
0
VERTEX
8
0
70
0
10
2.92253
20
7.12663
0
VERTEX
8
0
70
0
10
3.02886
20
7.33132
0
VERTEX
8
0
70
0
10
3.15181
20
7.52513
0
VERTEX
8
0
70
0
10
3.29042
20
7.70719
0
VERTEX
8
0
70
0
10
3.44379
20
7.87646
0
VERTEX
8
0
70
0
10
3.61094
20
8.03201
0
VERTEX
8
0
70
0
10
3.79096
20
8.1729
0
VERTEX
8
0
70
0
10
3.98296
20
8.29813
0
VERTEX
8
0
70
0
10
4.18593
20
8.40668
0
VERTEX
8
0
70
0
10
4.39899
20
8.49772
0
VERTEX
8
0
70
0
10
4.62121
20
8.57021
0
VERTEX
8
0
70
0
10
4.85161
20
8.62315
0
VERTEX
8
0
70
0
10
5.08931
20
8.65565
0
VERTEX
8
0
70
0
10
5.27229
20
8.66667
0
VERTEX
8
0
70
0
10
5.33333
20
8.66667
0
VERTEX
8
0
70
0
10
5.39432
20
8.66667
0
VERTEX
8
0
70
0
10
5.57736
20
8.6556
0
VERTEX
8
0
70
0
10
5.81489
20
8.62294
0
VERTEX
8
0
70
0
10
6.04492
20
8.56976
0
VERTEX
8
0
70
0
10
6.26654
20
8.49696
0
VERTEX
8
0
70
0
10
6.47889
20
8.4056
0
VERTEX
8
0
70
0
10
6.68099
20
8.29656
0
VERTEX
8
0
70
0
10
6.87207
20
8.17085
0
VERTEX
8
0
70
0
10
7.05111
20
8.02946
0
VERTEX
8
0
70
0
10
7.21724
20
7.87332
0
VERTEX
8
0
70
0
10
7.36951
20
7.7035
0
VERTEX
8
0
70
0
10
7.50711
20
7.52089
0
VERTEX
8
0
70
0
10
7.62907
20
7.3265
0
VERTEX
8
0
70
0
10
7.73454
20
7.12131
0
VERTEX
8
0
70
0
10
7.82254
20
6.90625
0
VERTEX
8
0
70
0
10
7.89225
20
6.68235
0
VERTEX
8
0
70
0
10
7.93261
20
6.50896
0
VERTEX
8
0
70
0
10
7.94271
20
6.45053
0
VERTEX
8
0
70
0
10
7.98178
20
6.47597
0
VERTEX
8
0
70
0
10
8.10618
20
6.54144
0
VERTEX
8
0
70
0
10
8.28271
20
6.60938
0
VERTEX
8
0
70
0
10
8.47021
20
6.65196
0
VERTEX
8
0
70
0
10
8.61751
20
6.66667
0
VERTEX
8
0
70
0
10
8.66667
20
6.66667
0
VERTEX
8
0
70
0
10
8.70068
20
6.66667
0
VERTEX
8
0
70
0
10
8.80285
20
6.65983
0
VERTEX
8
0
70
0
10
8.93517
20
6.6396
0
VERTEX
8
0
70
0
10
9.06287
20
6.60672
0
VERTEX
8
0
70
0
10
9.18533
20
6.56185
0
VERTEX
8
0
70
0
10
9.30186
20
6.50569
0
VERTEX
8
0
70
0
10
9.41178
20
6.43886
0
VERTEX
8
0
70
0
10
9.51449
20
6.36208
0
VERTEX
8
0
70
0
10
9.60921
20
6.27604
0
VERTEX
8
0
70
0
10
9.69526
20
6.18132
0
VERTEX
8
0
70
0
10
9.77208
20
6.07867
0
VERTEX
8
0
70
0
10
9.83892
20
5.96875
0
VERTEX
8
0
70
0
10
9.89507
20
5.85221
0
VERTEX
8
0
70
0
10
9.94
20
5.72971
0
VERTEX
8
0
70
0
10
9.97288
20
5.60194
0
VERTEX
8
0
70
0
10
9.99306
20
5.46962
0
VERTEX
8
0
70
0
10
10
20
5.3674
0
VERTEX
8
0
70
0
10
10
20
5.33333
0
VERTEX
8
0
70
0
10
10
20
5.29932
0
VERTEX
8
0
70
0
10
9.99306
20
5.19715
0
VERTEX
8
0
70
0
10
9.97288
20
5.06483
0
VERTEX
8
0
70
0
10
9.94
20
4.93712
0
VERTEX
8
0
70
0
10
9.89507
20
4.81467
0
VERTEX
8
0
70
0
10
9.83892
20
4.69814
0
VERTEX
8
0
70
0
10
9.77208
20
4.58822
0
VERTEX
8
0
70
0
10
9.69526
20
4.48551
0
VERTEX
8
0
70
0
10
9.60921
20
4.39079
0
VERTEX
8
0
70
0
10
9.51449
20
4.30474
0
VERTEX
8
0
70
0
10
9.41178
20
4.22792
0
VERTEX
8
0
70
0
10
9.30186
20
4.16108
0
VERTEX
8
0
70
0
10
9.18533
20
4.10493
0
VERTEX
8
0
70
0
10
9.06287
20
4.06
0
VERTEX
8
0
70
0
10
8.93517
20
4.02713
0
VERTEX
8
0
70
0
10
8.80285
20
4.00694
0
VERTEX
8
0
70
0
10
8.70068
20
4
0
VERTEX
8
0
70
0
10
8.66667
20
4
0
VERTEX
8
0
70
0
10
8.62744
20
4
0
VERTEX
8
0
70
0
10
8.50993
20
4.01074
0
VERTEX
8
0
70
0
10
8.38314
20
4.03321
0
VERTEX
8
0
70
0
10
8.35807
20
4.03907
0
VERTEX
8
0
70
0
10
8.32992
20
3.99929
0
VERTEX
8
0
70
0
10
8.23617
20
3.8865
0
VERTEX
8
0
70
0
10
8.09771
20
3.74918
0
VERTEX
8
0
70
0
10
7.94401
20
3.62869
0
VERTEX
8
0
70
0
10
7.77669
20
3.52653
0
VERTEX
8
0
70
0
10
7.59711
20
3.44439
0
VERTEX
8
0
70
0
10
7.40679
20
3.38374
0
VERTEX
8
0
70
0
10
7.20731
20
3.34625
0
VERTEX
8
0
70
0
10
7.05181
20
3.33333
0
VERTEX
8
0
70
0
10
7
20
3.33333
0
VERTEX
8
0
70
0
10
6.95763
20
3.33333
0
VERTEX
8
0
70
0
10
6.83062
20
3.34489
0
VERTEX
8
0
70
0
10
6.69368
20
3.36882
0
VERTEX
8
0
70
0
10
6.66667
20
3.375
0
VERTEX
8
0
70
0
10
6.66667
20
2.69857
0
VERTEX
8
0
70
0
10
6.69385
20
2.69417
0
VERTEX
8
0
70
0
10
6.92344
20
2.66667
0
VERTEX
8
0
70
0
10
7
20
2.66667
0
VERTEX
8
0
70
0
10
7.05897
20
2.66667
0
VERTEX
8
0
70
0
10
7.23594
20
2.67854
0
VERTEX
8
0
70
0
10
7.46506
20
2.71326
0
VERTEX
8
0
70
0
10
7.68625
20
2.76975
0
VERTEX
8
0
70
0
10
7.89844
20
2.84679
0
VERTEX
8
0
70
0
10
8.10042
20
2.94331
0
VERTEX
8
0
70
0
10
8.29124
20
3.05811
0
VERTEX
8
0
70
0
10
8.46972
20
3.19
0
VERTEX
8
0
70
0
10
8.59532
20
3.2991
0
VERTEX
8
0
70
0
10
8.63476
20
3.33789
0
VERTEX
8
0
70
0
10
8.63753
20
3.33772
0
VERTEX
8
0
70
0
10
8.65935
20
3.33333
0
VERTEX
8
0
70
0
10
8.66667
20
3.33333
0
VERTEX
8
0
70
0
10
8.71778
20
3.33333
0
VERTEX
8
0
70
0
10
8.87115
20
3.34369
0
VERTEX
8
0
70
0
10
9.06976
20
3.37397
0
VERTEX
8
0
70
0
10
9.26144
20
3.42324
0
VERTEX
8
0
70
0
10
9.44526
20
3.4905
0
VERTEX
8
0
70
0
10
9.62007
20
3.57471
0
VERTEX
8
0
70
0
10
9.785
20
3.67486
0
VERTEX
8
0
70
0
10
9.93892
20
3.78999
0
VERTEX
8
0
70
0
10
10.0809
20
3.91906
0
VERTEX
8
0
70
0
10
10.21
20
4.06108
0
VERTEX
8
0
70
0
10
10.3251
20
4.215
0
VERTEX
8
0
70
0
10
10.4253
20
4.37993
0
VERTEX
8
0
70
0
10
10.5095
20
4.55474
0
VERTEX
8
0
70
0
10
10.5768
20
4.73856
0
VERTEX
8
0
70
0
10
10.626
20
4.93024
0
VERTEX
8
0
70
0
10
10.6563
20
5.12885
0
VERTEX
8
0
70
0
10
10.6667
20
5.28222
0
VERTEX
8
0
70
0
10
10.6667
20
5.33333
0
VERTEX
8
0
70
0
10
10.6667
20
5.3845
0
VERTEX
8
0
70
0
10
10.6563
20
5.53787
0
VERTEX
8
0
70
0
10
10.626
20
5.73649
0
VERTEX
8
0
70
0
10
10.5768
20
5.92817
0
VERTEX
8
0
70
0
10
10.5095
20
6.11199
0
VERTEX
8
0
70
0
10
10.4253
20
6.28678
0
VERTEX
8
0
70
0
10
10.3251
20
6.45171
0
VERTEX
8
0
70
0
10
10.21
20
6.60563
0
VERTEX
8
0
70
0
10
10.0809
20
6.74767
0
VERTEX
8
0
70
0
10
9.93892
20
6.87674
0
VERTEX
8
0
70
0
10
9.785
20
6.99186
0
VERTEX
8
0
70
0
10
9.62007
20
7.09201
0
VERTEX
8
0
70
0
10
9.44526
20
7.17622
0
VERTEX
8
0
70
0
10
9.26144
20
7.24349
0
VERTEX
8
0
70
0
10
9.06976
20
7.29275
0
VERTEX
8
0
70
0
10
8.87115
20
7.32303
0
VERTEX
8
0
70
0
10
8.71778
20
7.33333
0
VERTEX
8
0
70
0
10
8.66667
20
7.33333
0
SEQEND
0
POLYLINE
8
0
66
1
70
0
0
VERTEX
8
0
70
0
10
6
20
5.33333
0
VERTEX
8
0
70
0
10
4.66667
20
5.33333
0
VERTEX
8
0
70
0
10
4.66667
20
2
0
VERTEX
8
0
70
0
10
3.33333
20
2
0
VERTEX
8
0
70
0
10
5.33333
20
0
0
VERTEX
8
0
70
0
10
7.33333
20
2
0
VERTEX
8
0
70
0
10
6
20
2
0
VERTEX
8
0
70
0
10
6
20
5.33333
0
SEQEND
0
POLYLINE
8
0
66
1
70
0
0
VERTEX
8
0
70
0
10
19.333370000000002
20
7.33333
0
VERTEX
8
0
70
0
10
19.29973
20
7.33333
0
VERTEX
8
0
70
0
10
19.19892
20
7.32454
0
VERTEX
8
0
70
0
10
19.08858
20
7.30968
0
VERTEX
8
0
70
0
10
19.06644
20
7.30664
0
VERTEX
8
0
70
0
10
19.04273
20
7.36231
0
VERTEX
8
0
70
0
10
18.96341
20
7.52567
0
VERTEX
8
0
70
0
10
18.8453
20
7.73563
0
VERTEX
8
0
70
0
10
18.71281
20
7.93587
0
VERTEX
8
0
70
0
10
18.5666
20
8.12571
0
VERTEX
8
0
70
0
10
18.407420000000002
20
8.30436
0
VERTEX
8
0
70
0
10
18.23592
20
8.47119
0
VERTEX
8
0
70
0
10
18.05283
20
8.62549
0
VERTEX
8
0
70
0
10
17.85892
20
8.76654
0
VERTEX
8
0
70
0
10
17.65477
20
8.89367
0
VERTEX
8
0
70
0
10
17.44117
20
9.00608
0
VERTEX
8
0
70
0
10
17.218780000000002
20
9.10314
0
VERTEX
8
0
70
0
10
16.98837
20
9.18414
0
VERTEX
8
0
70
0
10
16.75052
20
9.24838
0
VERTEX
8
0
70
0
10
16.50612
20
9.29514
0
VERTEX
8
0
70
0
10
16.255670000000002
20
9.32368
0
VERTEX
8
0
70
0
10
16.06395
20
9.33333
0
VERTEX
8
0
70
0
10
16.000030000000002
20
9.33333
0
VERTEX
8
0
70
0
10
15.93607
20
9.33333
0
VERTEX
8
0
70
0
10
15.74428
20
9.32368
0
VERTEX
8
0
70
0
10
15.49385
20
9.29514
0
VERTEX
8
0
70
0
10
15.24938
20
9.24838
0
VERTEX
8
0
70
0
10
15.011590000000002
20
9.18414
0
VERTEX
8
0
70
0
10
14.78117
20
9.10314
0
VERTEX
8
0
70
0
10
14.55884
20
9.00608
0
VERTEX
8
0
70
0
10
14.3453
20
8.89367
0
VERTEX
8
0
70
0
10
14.141200000000001
20
8.76654
0
VERTEX
8
0
70
0
10
13.9473
20
8.62549
0
VERTEX
8
0
70
0
10
13.7642
20
8.47119
0
VERTEX
8
0
70
0
10
13.59276
20
8.30436
0
VERTEX
8
0
70
0
10
13.433520000000001
20
8.12571
0
VERTEX
8
0
70
0
10
13.28726
20
7.93587
0
VERTEX
8
0
70
0
10
13.15466
20
7.73563
0
VERTEX
8
0
70
0
10
13.03644
20
7.52567
0
VERTEX
8
0
70
0
10
12.95706
20
7.36225
0
VERTEX
8
0
70
0
10
12.933300000000001
20
7.30664
0
VERTEX
8
0
70
0
10
12.91133
20
7.30968
0
VERTEX
8
0
70
0
10
12.801300000000001
20
7.32454
0
VERTEX
8
0
70
0
10
12.70034
20
7.33333
0
VERTEX
8
0
70
0
10
12.6667
20
7.33333
0
VERTEX
8
0
70
0
10
12.61553
20
7.33333
0
VERTEX
8
0
70
0
10
12.46216
20
7.32303
0
VERTEX
8
0
70
0
10
12.26355
20
7.29275
0
VERTEX
8
0
70
0
10
12.07187
20
7.24349
0
VERTEX
8
0
70
0
10
11.88805
20
7.17622
0
VERTEX
8
0
70
0
10
11.71325
20
7.09201
0
VERTEX
8
0
70
0
10
11.548319000000001
20
6.99186
0
VERTEX
8
0
70
0
10
11.394401
20
6.87674
0
VERTEX
8
0
70
0
10
11.252367000000001
20
6.74767
0
VERTEX
8
0
70
0
10
11.123297
20
6.60563
0
VERTEX
8
0
70
0
10
11.008171
20
6.45171
0
VERTEX
8
0
70
0
10
10.908019000000001
20
6.28678
0
VERTEX
8
0
70
0
10
10.823818000000001
20
6.11199
0
VERTEX
8
0
70
0
10
10.756543800000001
20
5.92817
0
VERTEX
8
0
70
0
10
10.707281700000001
20
5.73649
0
VERTEX
8
0
70
0
10
10.677008200000001
20
5.53787
0
VERTEX
8
0
70
0
10
10.6667
20
5.3845
0
VERTEX
8
0
70
0
10
10.6667
20
5.33333
0
VERTEX
8
0
70
0
10
10.6667
20
5.28222
0
VERTEX
8
0
70
0
10
10.677008200000001
20
5.12885
0
VERTEX
8
0
70
0
10
10.707281700000001
20
4.93024
0
VERTEX
8
0
70
0
10
10.756543800000001
20
4.73856
0
VERTEX
8
0
70
0
10
10.823818000000001
20
4.55474
0
VERTEX
8
0
70
0
10
10.908019000000001
20
4.37993
0
VERTEX
8
0
70
0
10
11.008171
20
4.215
0
VERTEX
8
0
70
0
10
11.123297
20
4.06108
0
VERTEX
8
0
70
0
10
11.252367000000001
20
3.91906
0
VERTEX
8
0
70
0
10
11.394401
20
3.78999
0
VERTEX
8
0
70
0
10
11.548319000000001
20
3.67486
0
VERTEX
8
0
70
0
10
11.71325
20
3.57471
0
VERTEX
8
0
70
0
10
11.88805
20
3.4905
0
VERTEX
8
0
70
0
10
12.07187
20
3.42324
0
VERTEX
8
0
70
0
10
12.26355
20
3.37397
0
VERTEX
8
0
70
0
10
12.46216
20
3.34369
0
VERTEX
8
0
70
0
10
12.61553
20
3.33333
0
VERTEX
8
0
70
0
10
12.6667
20
3.33333
0
VERTEX
8
0
70
0
10
12.74466
20
3.33333
0
VERTEX
8
0
70
0
10
12.978660000000001
20
3.36344
0
VERTEX
8
0
70
0
10
13.226600000000001
20
3.42546
0
VERTEX
8
0
70
0
10
13.27477
20
3.4414
0
VERTEX
8
0
70
0
10
13.30798
20
3.40468
0
VERTEX
8
0
70
0
10
13.41399
20
3.30012
0
VERTEX
8
0
70
0
10
13.56487
20
3.17156
0
VERTEX
8
0
70
0
10
13.72655
20
3.05632
0
VERTEX
8
0
70
0
10
13.89809
20
2.95508
0
VERTEX
8
0
70
0
10
14.078700000000001
20
2.86854
0
VERTEX
8
0
70
0
10
14.26762
20
2.79725
0
VERTEX
8
0
70
0
10
14.46385
20
2.74192
0
VERTEX
8
0
70
0
10
14.61564
20
2.71067
0
VERTEX
8
0
70
0
10
14.6667
20
2.70313
0
VERTEX
8
0
70
0
10
14.6667
20
3.38282
0
VERTEX
8
0
70
0
10
14.61846
20
3.39285
0
VERTEX
8
0
70
0
10
14.47616
20
3.43397
0
VERTEX
8
0
70
0
10
14.29512
20
3.50543
0
VERTEX
8
0
70
0
10
14.12509
20
3.59619
0
VERTEX
8
0
70
0
10
13.96753
20
3.70503
0
VERTEX
8
0
70
0
10
13.82409
20
3.83078
0
VERTEX
8
0
70
0
10
13.69621
20
3.97233
0
VERTEX
8
0
70
0
10
13.58548
20
4.12853
0
VERTEX
8
0
70
0
10
13.51387
20
4.25456
0
VERTEX
8
0
70
0
10
13.49352
20
4.29818
0
VERTEX
8
0
70
0
10
13.450940000000001
20
4.26389
0
VERTEX
8
0
70
0
10
13.31259
20
4.17415
0
VERTEX
8
0
70
0
10
13.11283
20
4.08024
0
VERTEX
8
0
70
0
10
12.89669
20
4.02078
0
VERTEX
8
0
70
0
10
12.724160000000001
20
4
0
VERTEX
8
0
70
0
10
12.6667
20
4
0
VERTEX
8
0
70
0
10
12.63263
20
4
0
VERTEX
8
0
70
0
10
12.530420000000001
20
4.00694
0
VERTEX
8
0
70
0
10
12.39809
20
4.02713
0
VERTEX
8
0
70
0
10
12.27032
20
4.06
0
VERTEX
8
0
70
0
10
12.147820000000001
20
4.10493
0
VERTEX
8
0
70
0
10
12.03128
20
4.16108
0
VERTEX
8
0
70
0
10
11.92137
20
4.22792
0
VERTEX
8
0
70
0
10
11.81872
20
4.30474
0
VERTEX
8
0
70
0
10
11.72399
20
4.39079
0
VERTEX
8
0
70
0
10
11.637946000000001
20
4.48551
0
VERTEX
8
0
70
0
10
11.561176
20
4.58822
0
VERTEX
8
0
70
0
10
11.494336
20
4.69814
0
VERTEX
8
0
70
0
10
11.438185
20
4.81467
0
VERTEX
8
0
70
0
10
11.393317
20
4.93712
0
VERTEX
8
0
70
0
10
11.360439000000001
20
5.06483
0
VERTEX
8
0
70
0
10
11.340203
20
5.19715
0
VERTEX
8
0
70
0
10
11.333367
20
5.29932
0
VERTEX
8
0
70
0
10
11.333367
20
5.33333
0
VERTEX
8
0
70
0
10
11.333367
20
5.3674
0
VERTEX
8
0
70
0
10
11.340203
20
5.46962
0
VERTEX
8
0
70
0
10
11.360439000000001
20
5.60194
0
VERTEX
8
0
70
0
10
11.393317
20
5.72971
0
VERTEX
8
0
70
0
10
11.438185
20
5.85221
0
VERTEX
8
0
70
0
10
11.494336
20
5.96875
0
VERTEX
8
0
70
0
10
11.561176
20
6.07867
0
VERTEX
8
0
70
0
10
11.637946000000001
20
6.18132
0
VERTEX
8
0
70
0
10
11.72399
20
6.27604
0
VERTEX
8
0
70
0
10
11.81872
20
6.36208
0
VERTEX
8
0
70
0
10
11.92137
20
6.43886
0
VERTEX
8
0
70
0
10
12.03128
20
6.50569
0
VERTEX
8
0
70
0
10
12.147820000000001
20
6.56185
0
VERTEX
8
0
70
0
10
12.27032
20
6.60672
0
VERTEX
8
0
70
0
10
12.39809
20
6.6396
0
VERTEX
8
0
70
0
10
12.530420000000001
20
6.65983
0
VERTEX
8
0
70
0
10
12.63263
20
6.66667
0
VERTEX
8
0
70
0
10
12.6667
20
6.66667
0
VERTEX
8
0
70
0
10
12.71503
20
6.66667
0
VERTEX
8
0
70
0
10
12.86012
20
6.65235
0
VERTEX
8
0
70
0
10
13.04446
20
6.611
0
VERTEX
8
0
70
0
10
13.218020000000001
20
6.54514
0
VERTEX
8
0
70
0
10
13.34059
20
6.48188
0
VERTEX
8
0
70
0
10
13.37927
20
6.45736
0
VERTEX
8
0
70
0
10
13.38935
20
6.51568
0
VERTEX
8
0
70
0
10
13.43016
20
6.68875
0
VERTEX
8
0
70
0
10
13.50046
20
6.91211
0
VERTEX
8
0
70
0
10
13.58923
20
7.12663
0
VERTEX
8
0
70
0
10
13.69556
20
7.33132
0
VERTEX
8
0
70
0
10
13.81851
20
7.52513
0
VERTEX
8
0
70
0
10
13.95712
20
7.70719
0
VERTEX
8
0
70
0
10
14.11049
20
7.87646
0
VERTEX
8
0
70
0
10
14.27764
20
8.03201
0
VERTEX
8
0
70
0
10
14.45766
20
8.1729
0
VERTEX
8
0
70
0
10
14.64966
20
8.29813
0
VERTEX
8
0
70
0
10
14.852630000000001
20
8.40668
0
VERTEX
8
0
70
0
10
15.06569
20
8.49772
0
VERTEX
8
0
70
0
10
15.28791
20
8.57021
0
VERTEX
8
0
70
0
10
15.51831
20
8.62315
0
VERTEX
8
0
70
0
10
15.75601
20
8.65565
0
VERTEX
8
0
70
0
10
15.93899
20
8.66667
0
VERTEX
8
0
70
0
10
16.000030000000002
20
8.66667
0
VERTEX
8
0
70
0
10
16.06102
20
8.66667
0
VERTEX
8
0
70
0
10
16.24406
20
8.6556
0
VERTEX
8
0
70
0
10
16.48159
20
8.62294
0
VERTEX
8
0
70
0
10
16.71162
20
8.56976
0
VERTEX
8
0
70
0
10
16.93324
20
8.49696
0
VERTEX
8
0
70
0
10
17.14559
20
8.4056
0
VERTEX
8
0
70
0
10
17.34769
20
8.29656
0
VERTEX
8
0
70
0
10
17.53877
20
8.17085
0
VERTEX
8
0
70
0
10
17.71781
20
8.02946
0
VERTEX
8
0
70
0
10
17.883940000000003
20
7.87332
0
VERTEX
8
0
70
0
10
18.03621
20
7.7035
0
VERTEX
8
0
70
0
10
18.17381
20
7.52089
0
VERTEX
8
0
70
0
10
18.29577
20
7.3265
0
VERTEX
8
0
70
0
10
18.40124
20
7.12131
0
VERTEX
8
0
70
0
10
18.489240000000002
20
6.90625
0
VERTEX
8
0
70
0
10
18.55895
20
6.68235
0
VERTEX
8
0
70
0
10
18.599310000000003
20
6.50896
0
VERTEX
8
0
70
0
10
18.60941
20
6.45053
0
VERTEX
8
0
70
0
10
18.64848
20
6.47597
0
VERTEX
8
0
70
0
10
18.77288
20
6.54144
0
VERTEX
8
0
70
0
10
18.94941
20
6.60938
0
VERTEX
8
0
70
0
10
19.13691
20
6.65196
0
VERTEX
8
0
70
0
10
19.28421
20
6.66667
0
VERTEX
8
0
70
0
10
19.333370000000002
20
6.66667
0
VERTEX
8
0
70
0
10
19.36738
20
6.66667
0
VERTEX
8
0
70
0
10
19.469549999999998
20
6.65983
0
VERTEX
8
0
70
0
10
19.601869999999998
20
6.6396
0
VERTEX
8
0
70
0
10
19.729570000000002
20
6.60672
0
VERTEX
8
0
70
0
10
19.85203
20
6.56185
0
VERTEX
8
0
70
0
10
19.96856
20
6.50569
0
VERTEX
8
0
70
0
10
20.07848
20
6.43886
0
VERTEX
8
0
70
0
10
20.18119
20
6.36208
0
VERTEX
8
0
70
0
10
20.27591
20
6.27604
0
VERTEX
8
0
70
0
10
20.36196
20
6.18132
0
VERTEX
8
0
70
0
10
20.43878
20
6.07867
0
VERTEX
8
0
70
0
10
20.50562
20
5.96875
0
VERTEX
8
0
70
0
10
20.561770000000003
20
5.85221
0
VERTEX
8
0
70
0
10
20.6067
20
5.72971
0
VERTEX
8
0
70
0
10
20.639580000000002
20
5.60194
0
VERTEX
8
0
70
0
10
20.65976
20
5.46962
0
VERTEX
8
0
70
0
10
20.6667
20
5.3674
0
VERTEX
8
0
70
0
10
20.6667
20
5.33333
0
VERTEX
8
0
70
0
10
20.6667
20
5.29932
0
VERTEX
8
0
70
0
10
20.65976
20
5.19715
0
VERTEX
8
0
70
0
10
20.639580000000002
20
5.06483
0
VERTEX
8
0
70
0
10
20.6067
20
4.93712
0
VERTEX
8
0
70
0
10
20.561770000000003
20
4.81467
0
VERTEX
8
0
70
0
10
20.50562
20
4.69814
0
VERTEX
8
0
70
0
10
20.43878
20
4.58822
0
VERTEX
8
0
70
0
10
20.36196
20
4.48551
0
VERTEX
8
0
70
0
10
20.27591
20
4.39079
0
VERTEX
8
0
70
0
10
20.18119
20
4.30474
0
VERTEX
8
0
70
0
10
20.07848
20
4.22792
0
VERTEX
8
0
70
0
10
19.96856
20
4.16108
0
VERTEX
8
0
70
0
10
19.85203
20
4.10493
0
VERTEX
8
0
70
0
10
19.729570000000002
20
4.06
0
VERTEX
8
0
70
0
10
19.601869999999998
20
4.02713
0
VERTEX
8
0
70
0
10
19.469549999999998
20
4.00694
0
VERTEX
8
0
70
0
10
19.36738
20
4
0
VERTEX
8
0
70
0
10
19.333370000000002
20
4
0
VERTEX
8
0
70
0
10
19.29414
20
4
0
VERTEX
8
0
70
0
10
19.176630000000003
20
4.01074
0
VERTEX
8
0
70
0
10
19.04984
20
4.03321
0
VERTEX
8
0
70
0
10
19.02477
20
4.03907
0
VERTEX
8
0
70
0
10
18.99662
20
3.99929
0
VERTEX
8
0
70
0
10
18.90287
20
3.8865
0
VERTEX
8
0
70
0
10
18.764409999999998
20
3.74918
0
VERTEX
8
0
70
0
10
18.61071
20
3.62869
0
VERTEX
8
0
70
0
10
18.44339
20
3.52653
0
VERTEX
8
0
70
0
10
18.26381
20
3.44439
0
VERTEX
8
0
70
0
10
18.07349
20
3.38374
0
VERTEX
8
0
70
0
10
17.87401
20
3.34625
0
VERTEX
8
0
70
0
10
17.718510000000002
20
3.33333
0
VERTEX
8
0
70
0
10
17.6667
20
3.33333
0
VERTEX
8
0
70
0
10
17.62433
20
3.33333
0
VERTEX
8
0
70
0
10
17.497320000000002
20
3.34489
0
VERTEX
8
0
70
0
10
17.36038
20
3.36882
0
VERTEX
8
0
70
0
10
17.333370000000002
20
3.375
0
VERTEX
8
0
70
0
10
17.333370000000002
20
2.69857
0
VERTEX
8
0
70
0
10
17.36055
20
2.69417
0
VERTEX
8
0
70
0
10
17.59014
20
2.66667
0
VERTEX
8
0
70
0
10
17.6667
20
2.66667
0
VERTEX
8
0
70
0
10
17.72567
20
2.66667
0
VERTEX
8
0
70
0
10
17.90264
20
2.67854
0
VERTEX
8
0
70
0
10
18.13176
20
2.71326
0
VERTEX
8
0
70
0
10
18.35295
20
2.76975
0
VERTEX
8
0
70
0
10
18.56514
20
2.84679
0
VERTEX
8
0
70
0
10
18.76712
20
2.94331
0
VERTEX
8
0
70
0
10
18.95794
20
3.05811
0
VERTEX
8
0
70
0
10
19.13642
20
3.19
0
VERTEX
8
0
70
0
10
19.26202
20
3.2991
0
VERTEX
8
0
70
0
10
19.30146
20
3.33789
0
VERTEX
8
0
70
0
10
19.30423
20
3.33772
0
VERTEX
8
0
70
0
10
19.326050000000002
20
3.33333
0
VERTEX
8
0
70
0
10
19.333370000000002
20
3.33333
0
VERTEX
8
0
70
0
10
19.38448
20
3.33333
0
VERTEX
8
0
70
0
10
19.53785
20
3.34369
0
VERTEX
8
0
70
0
10
19.73646
20
3.37397
0
VERTEX
8
0
70
0
10
19.92814
20
3.42324
0
VERTEX
8
0
70
0
10
20.11196
20
3.4905
0
VERTEX
8
0
70
0
10
20.28677
20
3.57471
0
VERTEX
8
0
70
0
10
20.451700000000002
20
3.67486
0
VERTEX
8
0
70
0
10
20.605620000000002
20
3.78999
0
VERTEX
8
0
70
0
10
20.7476
20
3.91906
0
VERTEX
8
0
70
0
10
20.8767
20
4.06108
0
VERTEX
8
0
70
0
10
20.9918
20
4.215
0
VERTEX
8
0
70
0
10
21.092
20
4.37993
0
VERTEX
8
0
70
0
10
21.1762
20
4.55474
0
VERTEX
8
0
70
0
10
21.2435
20
4.73856
0
VERTEX
8
0
70
0
10
21.2927
20
4.93024
0
VERTEX
8
0
70
0
10
21.323
20
5.12885
0
VERTEX
8
0
70
0
10
21.3334
20
5.28222
0
VERTEX
8
0
70
0
10
21.3334
20
5.33333
0
VERTEX
8
0
70
0
10
21.3334
20
5.3845
0
VERTEX
8
0
70
0
10
21.323
20
5.53787
0
VERTEX
8
0
70
0
10
21.2927
20
5.73649
0
VERTEX
8
0
70
0
10
21.2435
20
5.92817
0
VERTEX
8
0
70
0
10
21.1762
20
6.11199
0
VERTEX
8
0
70
0
10
21.092
20
6.28678
0
VERTEX
8
0
70
0
10
20.9918
20
6.45171
0
VERTEX
8
0
70
0
10
20.8767
20
6.60563
0
VERTEX
8
0
70
0
10
20.7476
20
6.74767
0
VERTEX
8
0
70
0
10
20.605620000000002
20
6.87674
0
VERTEX
8
0
70
0
10
20.451700000000002
20
6.99186
0
VERTEX
8
0
70
0
10
20.28677
20
7.09201
0
VERTEX
8
0
70
0
10
20.11196
20
7.17622
0
VERTEX
8
0
70
0
10
19.92814
20
7.24349
0
VERTEX
8
0
70
0
10
19.73646
20
7.29275
0
VERTEX
8
0
70
0
10
19.53785
20
7.32303
0
VERTEX
8
0
70
0
10
19.38448
20
7.33333
0
VERTEX
8
0
70
0
10
19.333370000000002
20
7.33333
0
SEQEND
0
POLYLINE
8
0
66
1
70
0
0
VERTEX
8
0
70
0
10
16.6667
20
5.33333
0
VERTEX
8
0
70
0
10
15.33337
20
5.33333
0
VERTEX
8
0
70
0
10
15.33337
20
2
0
VERTEX
8
0
70
0
10
14.00003
20
2
0
VERTEX
8
0
70
0
10
16.000030000000002
20
0
0
VERTEX
8
0
70
0
10
18.000030000000002
20
2
0
VERTEX
8
0
70
0
10
16.6667
20
2
0
VERTEX
8
0
70
0
10
16.6667
20
5.33333
0
SEQEND
0
LINE
8
l_green
10
0
20
9.33333
30
0
11
10.6667
21
9.33333
31
0
0
LINE
8
l_green
10
0
20
0
30
0
11
10.6667
21
0
31
0
0
LINE
8
l_green
10
0
20
9.33333
30
0
11
0
21
0
31
0
0
LINE
8
l_green
10
10.6667
20
9.33333
30
0
11
10.6667
21
0
31
0
0
ENDSEC
0
EOF