  0
SECTION
  2
HEADER
  9
$ACADVER
  1
AC1009
  9
$EXTMIN
 10
0.0
 20
0.0
 30
0.0
  9
$EXTMAX
 10
1000.0
 20
1000.0
 30
0.0
  9
$FILLMODE
 70
 0
  9
$SPLFRAME
 70
 1
  0
ENDSEC
  0
SECTION
  2
TABLES
  0
TABLE
  2
LAYER
 70
1
  0
LAYER
  2
0
 70
     0
 62
     7
  6
CONTINUOUS
  0
ENDTAB
  0
ENDSEC
  0
SECTION
  2
ENTITIES
0
TEXT
8
0
1
Cloud:
10
0
20
10
30
0
40
2
50
0
  0
POLYLINE
  8
0
 62
     0
 66
     1
 10
0
 20
0
 30
0.0
 70
     1
 40
0
 41
0
  0
VERTEX
  8
0
 10
8.66667
 20
7.33333
 30
0.0
 40
0
 41
0
  0
VERTEX
  8
0
 10
8.63303
 20
7.33333
 30
0.0
 40
0
 41
0
  0
VERTEX
  8
0
 10
8.53222
 20
7.32454
 30
0.0
 40
0
 41
0
  0
VERTEX
  8
0
 10
8.42188
 20
7.30968
 30
0.0
 40
0
 41
0
  0
VERTEX
  8
0
 10
8.39974
 20
7.30664
 30
0.0
 40
0
 41
0
  0
VERTEX
  8
0
 10
8.37603
 20
7.36231
 30
0.0
 40
0
 41
0
  0
VERTEX
  8
0
 10
8.29671
 20
7.52567
 30
0.0
 40
0
 41
0
  0
VERTEX
  8
0
 10
8.1786
 20
7.73563
 30
0.0
 40
0
 41
0
  0
VERTEX
  8
0
 10
8.04611
 20
7.93587
 30
0.0
 40
0
 41
0
  0
VERTEX
  8
0
 10
7.8999
 20
8.12571
 30
0.0
 40
0
 41
0
  0
VERTEX
  8
0
 10
7.74072
 20
8.30436
 30
0.0
 40
0
 41
0
  0
VERTEX
  8
0
 10
7.56922
 20
8.47119
 30
0.0
 40
0
 41
0
  0
VERTEX
  8
0
 10
7.38613
 20
8.62549
 30
0.0
 40
0
 41
0
  0
VERTEX
  8
0
 10
7.19222
 20
8.76654
 30
0.0
 40
0
 41
0
  0
VERTEX
  8
0
 10
6.98807
 20
8.89367
 30
0.0
 40
0
 41
0
  0
VERTEX
  8
0
 10
6.77447
 20
9.00608
 30
0.0
 40
0
 41
0
  0
VERTEX
  8
0
 10
6.55208
 20
9.10314
 30
0.0
 40
0
 41
0
  0
VERTEX
  8
0
 10
6.32167
 20
9.18414
 30
0.0
 40
0
 41
0
  0
VERTEX
  8
0
 10
6.08382
 20
9.24838
 30
0.0
 40
0
 41
0
  0
VERTEX
  8
0
 10
5.83942
 20
9.29514
 30
0.0
 40
0
 41
0
  0
VERTEX
  8
0
 10
5.58897
 20
9.32368
 30
0.0
 40
0
 41
0
  0
VERTEX
  8
0
 10
5.39725
 20
9.33333
 30
0.0
 40
0
 41
0
  0
VERTEX
  8
0
 10
5.33333
 20
9.33333
 30
0.0
 40
0
 41
0
  0
VERTEX
  8
0
 10
5.26937
 20
9.33333
 30
0.0
 40
0
 41
0
  0
VERTEX
  8
0
 10
5.07758
 20
9.32368
 30
0.0
 40
0
 41
0
  0
VERTEX
  8
0
 10
4.82715
 20
9.29514
 30
0.0
 40
0
 41
0
  0
VERTEX
  8
0
 10
4.58268
 20
9.24838
 30
0.0
 40
0
 41
0
  0
VERTEX
  8
0
 10
4.34489
 20
9.18414
 30
0.0
 40
0
 41
0
  0
VERTEX
  8
0
 10
4.11447
 20
9.10314
 30
0.0
 40
0
 41
0
  0
VERTEX
  8
0
 10
3.89214
 20
9.00608
 30
0.0
 40
0
 41
0
  0
VERTEX
  8
0
 10
3.6786
 20
8.89367
 30
0.0
 40
0
 41
0
  0
VERTEX
  8
0
 10
3.4745
 20
8.76654
 30
0.0
 40
0
 41
0
  0
VERTEX
  8
0
 10
3.2806
 20
8.62549
 30
0.0
 40
0
 41
0
  0
VERTEX
  8
0
 10
3.0975
 20
8.47119
 30
0.0
 40
0
 41
0
  0
VERTEX
  8
0
 10
2.92606
 20
8.30436
 30
0.0
 40
0
 41
0
  0
VERTEX
  8
0
 10
2.76682
 20
8.12571
 30
0.0
 40
0
 41
0
  0
VERTEX
  8
0
 10
2.62056
 20
7.93587
 30
0.0
 40
0
 41
0
  0
VERTEX
  8
0
 10
2.48796
 20
7.73563
 30
0.0
 40
0
 41
0
  0
VERTEX
  8
0
 10
2.36974
 20
7.52567
 30
0.0
 40
0
 41
0
  0
VERTEX
  8
0
 10
2.29036
 20
7.36225
 30
0.0
 40
0
 41
0
  0
VERTEX
  8
0
 10
2.2666
 20
7.30664
 30
0.0
 40
0
 41
0
  0
VERTEX
  8
0
 10
2.24463
 20
7.30968
 30
0.0
 40
0
 41
0
  0
VERTEX
  8
0
 10
2.1346
 20
7.32454
 30
0.0
 40
0
 41
0
  0
VERTEX
  8
0
 10
2.03364
 20
7.33333
 30
0.0
 40
0
 41
0
  0
VERTEX
  8
0
 10
2
 20
7.33333
 30
0.0
 40
0
 41
0
  0
VERTEX
  8
0
 10
1.94883
 20
7.33333
 30
0.0
 40
0
 41
0
  0
VERTEX
  8
0
 10
1.79546
 20
7.32303
 30
0.0
 40
0
 41
0
  0
VERTEX
  8
0
 10
1.59685
 20
7.29275
 30
0.0
 40
0
 41
0
  0
VERTEX
  8
0
 10
1.40517
 20
7.24349
 30
0.0
 40
0
 41
0
  0
VERTEX
  8
0
 10
1.22135
 20
7.17622
 30
0.0
 40
0
 41
0
  0
VERTEX
  8
0
 10
1.04655
 20
7.09201
 30
0.0
 40
0
 41
0
  0
VERTEX
  8
0
 10
0.881619
 20
6.99186
 30
0.0
 40
0
 41
0
  0
VERTEX
  8
0
 10
0.727701
 20
6.87674
 30
0.0
 40
0
 41
0
  0
VERTEX
  8
0
 10
0.585667
 20
6.74767
 30
0.0
 40
0
 41
0
  0
VERTEX
  8
0
 10
0.456597
 20
6.60563
 30
0.0
 40
0
 41
0
  0
VERTEX
  8
0
 10
0.341471
 20
6.45171
 30
0.0
 40
0
 41
0
  0
VERTEX
  8
0
 10
0.241319
 20
6.28678
 30
0.0
 40
0
 41
0
  0
VERTEX
  8
0
 10
0.157118
 20
6.11199
 30
0.0
 40
0
 41
0
  0
VERTEX
  8
0
 10
0.0898438
 20
5.92817
 30
0.0
 40
0
 41
0
  0
VERTEX
  8
0
 10
0.0405817
 20
5.73649
 30
0.0
 40
0
 41
0
  0
VERTEX
  8
0
 10
0.0103082
 20
5.53787
 30
0.0
 40
0
 41
0
  0
VERTEX
  8
0
 10
0
 20
5.3845
 30
0.0
 40
0
 41
0
  0
VERTEX
  8
0
 10
0
 20
5.33333
 30
0.0
 40
0
 41
0
  0
VERTEX
  8
0
 10
0
 20
5.28222
 30
0.0
 40
0
 41
0
  0
VERTEX
  8
0
 10
0.0103082
 20
5.12885
 30
0.0
 40
0
 41
0
  0
VERTEX
  8
0
 10
0.0405817
 20
4.93024
 30
0.0
 40
0
 41
0
  0
VERTEX
  8
0
 10
0.0898438
 20
4.73856
 30
0.0
 40
0
 41
0
  0
VERTEX
  8
0
 10
0.157118
 20
4.55474
 30
0.0
 40
0
 41
0
  0
VERTEX
  8
0
 10
0.241319
 20
4.37993
 30
0.0
 40
0
 41
0
  0
VERTEX
  8
0
 10
0.341471
 20
4.215
 30
0.0
 40
0
 41
0
  0
VERTEX
  8
0
 10
0.456597
 20
4.06108
 30
0.0
 40
0
 41
0
  0
VERTEX
  8
0
 10
0.585667
 20
3.91906
 30
0.0
 40
0
 41
0
  0
VERTEX
  8
0
 10
0.727701
 20
3.78999
 30
0.0
 40
0
 41
0
  0
VERTEX
  8
0
 10
0.881619
 20
3.67486
 30
0.0
 40
0
 41
0
  0
VERTEX
  8
0
 10
1.04655
 20
3.57471
 30
0.0
 40
0
 41
0
  0
VERTEX
  8
0
 10
1.22135
 20
3.4905
 30
0.0
 40
0
 41
0
  0
VERTEX
  8
0
 10
1.40517
 20
3.42324
 30
0.0
 40
0
 41
0
  0
VERTEX
  8
0
 10
1.59685
 20
3.37397
 30
0.0
 40
0
 41
0
  0
VERTEX
  8
0
 10
1.79546
 20
3.34369
 30
0.0
 40
0
 41
0
  0
VERTEX
  8
0
 10
1.94883
 20
3.33333
 30
0.0
 40
0
 41
0
  0
VERTEX
  8
0
 10
2
 20
3.33333
 30
0.0
 40
0
 41
0
  0
VERTEX
  8
0
 10
2.07796
 20
3.33333
 30
0.0
 40
0
 41
0
  0
VERTEX
  8
0
 10
2.31196
 20
3.36344
 30
0.0
 40
0
 41
0
  0
VERTEX
  8
0
 10
2.5599
 20
3.42546
 30
0.0
 40
0
 41
0
  0
VERTEX
  8
0
 10
2.60807
 20
3.4414
 30
0.0
 40
0
 41
0
  0
VERTEX
  8
0
 10
2.64128
 20
3.40468
 30
0.0
 40
0
 41
0
  0
VERTEX
  8
0
 10
2.74729
 20
3.30012
 30
0.0
 40
0
 41
0
  0
VERTEX
  8
0
 10
2.89817
 20
3.17156
 30
0.0
 40
0
 41
0
  0
VERTEX
  8
0
 10
3.05985
 20
3.05632
 30
0.0
 40
0
 41
0
  0
VERTEX
  8
0
 10
3.23139
 20
2.95508
 30
0.0
 40
0
 41
0
  0
VERTEX
  8
0
 10
3.412
 20
2.86854
 30
0.0
 40
0
 41
0
  0
VERTEX
  8
0
 10
3.60092
 20
2.79725
 30
0.0
 40
0
 41
0
  0
VERTEX
  8
0
 10
3.79715
 20
2.74192
 30
0.0
 40
0
 41
0
  0
VERTEX
  8
0
 10
3.94894
 20
2.71067
 30
0.0
 40
0
 41
0
  0
VERTEX
  8
0
 10
4
 20
2.70313
 30
0.0
 40
0
 41
0
  0
VERTEX
  8
0
 10
4
 20
3.38282
 30
0.0
 40
0
 41
0
  0
VERTEX
  8
0
 10
3.95176
 20
3.39285
 30
0.0
 40
0
 41
0
  0
VERTEX
  8
0
 10
3.80946
 20
3.43397
 30
0.0
 40
0
 41
0
  0
VERTEX
  8
0
 10
3.62842
 20
3.50543
 30
0.0
 40
0
 41
0
  0
VERTEX
  8
0
 10
3.45839
 20
3.59619
 30
0.0
 40
0
 41
0
  0
VERTEX
  8
0
 10
3.30083
 20
3.70503
 30
0.0
 40
0
 41
0
  0
VERTEX
  8
0
 10
3.15739
 20
3.83078
 30
0.0
 40
0
 41
0
  0
VERTEX
  8
0
 10
3.02951
 20
3.97233
 30
0.0
 40
0
 41
0
  0
VERTEX
  8
0
 10
2.91878
 20
4.12853
 30
0.0
 40
0
 41
0
  0
VERTEX
  8
0
 10
2.84717
 20
4.25456
 30
0.0
 40
0
 41
0
  0
VERTEX
  8
0
 10
2.82682
 20
4.29818
 30
0.0
 40
0
 41
0
  0
VERTEX
  8
0
 10
2.78424
 20
4.26389
 30
0.0
 40
0
 41
0
  0
VERTEX
  8
0
 10
2.64589
 20
4.17415
 30
0.0
 40
0
 41
0
  0
VERTEX
  8
0
 10
2.44613
 20
4.08024
 30
0.0
 40
0
 41
0
  0
VERTEX
  8
0
 10
2.22999
 20
4.02078
 30
0.0
 40
0
 41
0
  0
VERTEX
  8
0
 10
2.05746
 20
4
 30
0.0
 40
0
 41
0
  0
VERTEX
  8
0
 10
2
 20
4
 30
0.0
 40
0
 41
0
  0
VERTEX
  8
0
 10
1.96593
 20
4
 30
0.0
 40
0
 41
0
  0
VERTEX
  8
0
 10
1.86372
 20
4.00694
 30
0.0
 40
0
 41
0
  0
VERTEX
  8
0
 10
1.73139
 20
4.02713
 30
0.0
 40
0
 41
0
  0
VERTEX
  8
0
 10
1.60362
 20
4.06
 30
0.0
 40
0
 41
0
  0
VERTEX
  8
0
 10
1.48112
 20
4.10493
 30
0.0
 40
0
 41
0
  0
VERTEX
  8
0
 10
1.36458
 20
4.16108
 30
0.0
 40
0
 41
0
  0
VERTEX
  8
0
 10
1.25467
 20
4.22792
 30
0.0
 40
0
 41
0
  0
VERTEX
  8
0
 10
1.15202
 20
4.30474
 30
0.0
 40
0
 41
0
  0
VERTEX
  8
0
 10
1.05729
 20
4.39079
 30
0.0
 40
0
 41
0
  0
VERTEX
  8
0
 10
0.971246
 20
4.48551
 30
0.0
 40
0
 41
0
  0
VERTEX
  8
0
 10
0.894476
 20
4.58822
 30
0.0
 40
0
 41
0
  0
VERTEX
  8
0
 10
0.827636
 20
4.69814
 30
0.0
 40
0
 41
0
  0
VERTEX
  8
0
 10
0.771485
 20
4.81467
 30
0.0
 40
0
 41
0
  0
VERTEX
  8
0
 10
0.726617
 20
4.93712
 30
0.0
 40
0
 41
0
  0
VERTEX
  8
0
 10
0.693739
 20
5.06483
 30
0.0
 40
0
 41
0
  0
VERTEX
  8
0
 10
0.673503
 20
5.19715
 30
0.0
 40
0
 41
0
  0
VERTEX
  8
0
 10
0.666667
 20
5.29932
 30
0.0
 40
0
 41
0
  0
VERTEX
  8
0
 10
0.666667
 20
5.33333
 30
0.0
 40
0
 41
0
  0
VERTEX
  8
0
 10
0.666667
 20
5.3674
 30
0.0
 40
0
 41
0
  0
VERTEX
  8
0
 10
0.673503
 20
5.46962
 30
0.0
 40
0
 41
0
  0
VERTEX
  8
0
 10
0.693739
 20
5.60194
 30
0.0
 40
0
 41
0
  0
VERTEX
  8
0
 10
0.726617
 20
5.72971
 30
0.0
 40
0
 41
0
  0
VERTEX
  8
0
 10
0.771485
 20
5.85221
 30
0.0
 40
0
 41
0
  0
VERTEX
  8
0
 10
0.827636
 20
5.96875
 30
0.0
 40
0
 41
0
  0
VERTEX
  8
0
 10
0.894476
 20
6.07867
 30
0.0
 40
0
 41
0
  0
VERTEX
  8
0
 10
0.971246
 20
6.18132
 30
0.0
 40
0
 41
0
  0
VERTEX
  8
0
 10
1.05729
 20
6.27604
 30
0.0
 40
0
 41
0
  0
VERTEX
  8
0
 10
1.15202
 20
6.36208
 30
0.0
 40
0
 41
0
  0
VERTEX
  8
0
 10
1.25467
 20
6.43886
 30
0.0
 40
0
 41
0
  0
VERTEX
  8
0
 10
1.36458
 20
6.50569
 30
0.0
 40
0
 41
0
  0
VERTEX
  8
0
 10
1.48112
 20
6.56185
 30
0.0
 40
0
 41
0
  0
VERTEX
  8
0
 10
1.60362
 20
6.60672
 30
0.0
 40
0
 41
0
  0
VERTEX
  8
0
 10
1.73139
 20
6.6396
 30
0.0
 40
0
 41
0
  0
VERTEX
  8
0
 10
1.86372
 20
6.65983
 30
0.0
 40
0
 41
0
  0
VERTEX
  8
0
 10
1.96593
 20
6.66667
 30
0.0
 40
0
 41
0
  0
VERTEX
  8
0
 10
2
 20
6.66667
 30
0.0
 40
0
 41
0
  0
VERTEX
  8
0
 10
2.04833
 20
6.66667
 30
0.0
 40
0
 41
0
  0
VERTEX
  8
0
 10
2.19342
 20
6.65235
 30
0.0
 40
0
 41
0
  0
VERTEX
  8
0
 10
2.37776
 20
6.611
 30
0.0
 40
0
 41
0
  0
VERTEX
  8
0
 10
2.55132
 20
6.54514
 30
0.0
 40
0
 41
0
  0
VERTEX
  8
0
 10
2.67389
 20
6.48188
 30
0.0
 40
0
 41
0
  0
VERTEX
  8
0
 10
2.71257
 20
6.45736
 30
0.0
 40
0
 41
0
  0
VERTEX
  8
0
 10
2.72265
 20
6.51568
 30
0.0
 40
0
 41
0
  0
VERTEX
  8
0
 10
2.76346
 20
6.68875
 30
0.0
 40
0
 41
0
  0
VERTEX
  8
0
 10
2.83376
 20
6.91211
 30
0.0
 40
0
 41
0
  0
VERTEX
  8
0
 10
2.92253
 20
7.12663
 30
0.0
 40
0
 41
0
  0
VERTEX
  8
0
 10
3.02886
 20
7.33132
 30
0.0
 40
0
 41
0
  0
VERTEX
  8
0
 10
3.15181
 20
7.52513
 30
0.0
 40
0
 41
0
  0
VERTEX
  8
0
 10
3.29042
 20
7.70719
 30
0.0
 40
0
 41
0
  0
VERTEX
  8
0
 10
3.44379
 20
7.87646
 30
0.0
 40
0
 41
0
  0
VERTEX
  8
0
 10
3.61094
 20
8.03201
 30
0.0
 40
0
 41
0
  0
VERTEX
  8
0
 10
3.79096
 20
8.1729
 30
0.0
 40
0
 41
0
  0
VERTEX
  8
0
 10
3.98296
 20
8.29813
 30
0.0
 40
0
 41
0
  0
VERTEX
  8
0
 10
4.18593
 20
8.40668
 30
0.0
 40
0
 41
0
  0
VERTEX
  8
0
 10
4.39899
 20
8.49772
 30
0.0
 40
0
 41
0
  0
VERTEX
  8
0
 10
4.62121
 20
8.57021
 30
0.0
 40
0
 41
0
  0
VERTEX
  8
0
 10
4.85161
 20
8.62315
 30
0.0
 40
0
 41
0
  0
VERTEX
  8
0
 10
5.08931
 20
8.65565
 30
0.0
 40
0
 41
0
  0
VERTEX
  8
0
 10
5.27229
 20
8.66667
 30
0.0
 40
0
 41
0
  0
VERTEX
  8
0
 10
5.33333
 20
8.66667
 30
0.0
 40
0
 41
0
  0
VERTEX
  8
0
 10
5.39432
 20
8.66667
 30
0.0
 40
0
 41
0
  0
VERTEX
  8
0
 10
5.57736
 20
8.6556
 30
0.0
 40
0
 41
0
  0
VERTEX
  8
0
 10
5.81489
 20
8.62294
 30
0.0
 40
0
 41
0
  0
VERTEX
  8
0
 10
6.04492
 20
8.56976
 30
0.0
 40
0
 41
0
  0
VERTEX
  8
0
 10
6.26654
 20
8.49696
 30
0.0
 40
0
 41
0
  0
VERTEX
  8
0
 10
6.47889
 20
8.4056
 30
0.0
 40
0
 41
0
  0
VERTEX
  8
0
 10
6.68099
 20
8.29656
 30
0.0
 40
0
 41
0
  0
VERTEX
  8
0
 10
6.87207
 20
8.17085
 30
0.0
 40
0
 41
0
  0
VERTEX
  8
0
 10
7.05111
 20
8.02946
 30
0.0
 40
0
 41
0
  0
VERTEX
  8
0
 10
7.21724
 20
7.87332
 30
0.0
 40
0
 41
0
  0
VERTEX
  8
0
 10
7.36951
 20
7.7035
 30
0.0
 40
0
 41
0
  0
VERTEX
  8
0
 10
7.50711
 20
7.52089
 30
0.0
 40
0
 41
0
  0
VERTEX
  8
0
 10
7.62907
 20
7.3265
 30
0.0
 40
0
 41
0
  0
VERTEX
  8
0
 10
7.73454
 20
7.12131
 30
0.0
 40
0
 41
0
  0
VERTEX
  8
0
 10
7.82254
 20
6.90625
 30
0.0
 40
0
 41
0
  0
VERTEX
  8
0
 10
7.89225
 20
6.68235
 30
0.0
 40
0
 41
0
  0
VERTEX
  8
0
 10
7.93261
 20
6.50896
 30
0.0
 40
0
 41
0
  0
VERTEX
  8
0
 10
7.94271
 20
6.45053
 30
0.0
 40
0
 41
0
  0
VERTEX
  8
0
 10
7.98178
 20
6.47597
 30
0.0
 40
0
 41
0
  0
VERTEX
  8
0
 10
8.10618
 20
6.54144
 30
0.0
 40
0
 41
0
  0
VERTEX
  8
0
 10
8.28271
 20
6.60938
 30
0.0
 40
0
 41
0
  0
VERTEX
  8
0
 10
8.47021
 20
6.65196
 30
0.0
 40
0
 41
0
  0
VERTEX
  8
0
 10
8.61751
 20
6.66667
 30
0.0
 40
0
 41
0
  0
VERTEX
  8
0
 10
8.66667
 20
6.66667
 30
0.0
 40
0
 41
0
  0
VERTEX
  8
0
 10
8.70068
 20
6.66667
 30
0.0
 40
0
 41
0
  0
VERTEX
  8
0
 10
8.80285
 20
6.65983
 30
0.0
 40
0
 41
0
  0
VERTEX
  8
0
 10
8.93517
 20
6.6396
 30
0.0
 40
0
 41
0
  0
VERTEX
  8
0
 10
9.06287
 20
6.60672
 30
0.0
 40
0
 41
0
  0
VERTEX
  8
0
 10
9.18533
 20
6.56185
 30
0.0
 40
0
 41
0
  0
VERTEX
  8
0
 10
9.30186
 20
6.50569
 30
0.0
 40
0
 41
0
  0
VERTEX
  8
0
 10
9.41178
 20
6.43886
 30
0.0
 40
0
 41
0
  0
VERTEX
  8
0
 10
9.51449
 20
6.36208
 30
0.0
 40
0
 41
0
  0
VERTEX
  8
0
 10
9.60921
 20
6.27604
 30
0.0
 40
0
 41
0
  0
VERTEX
  8
0
 10
9.69526
 20
6.18132
 30
0.0
 40
0
 41
0
  0
VERTEX
  8
0
 10
9.77208
 20
6.07867
 30
0.0
 40
0
 41
0
  0
VERTEX
  8
0
 10
9.83892
 20
5.96875
 30
0.0
 40
0
 41
0
  0
VERTEX
  8
0
 10
9.89507
 20
5.85221
 30
0.0
 40
0
 41
0
  0
VERTEX
  8
0
 10
9.94
 20
5.72971
 30
0.0
 40
0
 41
0
  0
VERTEX
  8
0
 10
9.97288
 20
5.60194
 30
0.0
 40
0
 41
0
  0
VERTEX
  8
0
 10
9.99306
 20
5.46962
 30
0.0
 40
0
 41
0
  0
VERTEX
  8
0
 10
10
 20
5.3674
 30
0.0
 40
0
 41
0
  0
VERTEX
  8
0
 10
10
 20
5.33333
 30
0.0
 40
0
 41
0
  0
VERTEX
  8
0
 10
10
 20
5.29932
 30
0.0
 40
0
 41
0
  0
VERTEX
  8
0
 10
9.99306
 20
5.19715
 30
0.0
 40
0
 41
0
  0
VERTEX
  8
0
 10
9.97288
 20
5.06483
 30
0.0
 40
0
 41
0
  0
VERTEX
  8
0
 10
9.94
 20
4.93712
 30
0.0
 40
0
 41
0
  0
VERTEX
  8
0
 10
9.89507
 20
4.81467
 30
0.0
 40
0
 41
0
  0
VERTEX
  8
0
 10
9.83892
 20
4.69814
 30
0.0
 40
0
 41
0
  0
VERTEX
  8
0
 10
9.77208
 20
4.58822
 30
0.0
 40
0
 41
0
  0
VERTEX
  8
0
 10
9.69526
 20
4.48551
 30
0.0
 40
0
 41
0
  0
VERTEX
  8
0
 10
9.60921
 20
4.39079
 30
0.0
 40
0
 41
0
  0
VERTEX
  8
0
 10
9.51449
 20
4.30474
 30
0.0
 40
0
 41
0
  0
VERTEX
  8
0
 10
9.41178
 20
4.22792
 30
0.0
 40
0
 41
0
  0
VERTEX
  8
0
 10
9.30186
 20
4.16108
 30
0.0
 40
0
 41
0
  0
VERTEX
  8
0
 10
9.18533
 20
4.10493
 30
0.0
 40
0
 41
0
  0
VERTEX
  8
0
 10
9.06287
 20
4.06
 30
0.0
 40
0
 41
0
  0
VERTEX
  8
0
 10
8.93517
 20
4.02713
 30
0.0
 40
0
 41
0
  0
VERTEX
  8
0
 10
8.80285
 20
4.00694
 30
0.0
 40
0
 41
0
  0
VERTEX
  8
0
 10
8.70068
 20
4
 30
0.0
 40
0
 41
0
  0
VERTEX
  8
0
 10
8.66667
 20
4
 30
0.0
 40
0
 41
0
  0
VERTEX
  8
0
 10
8.62744
 20
4
 30
0.0
 40
0
 41
0
  0
VERTEX
  8
0
 10
8.50993
 20
4.01074
 30
0.0
 40
0
 41
0
  0
VERTEX
  8
0
 10
8.38314
 20
4.03321
 30
0.0
 40
0
 41
0
  0
VERTEX
  8
0
 10
8.35807
 20
4.03907
 30
0.0
 40
0
 41
0
  0
VERTEX
  8
0
 10
8.32992
 20
3.99929
 30
0.0
 40
0
 41
0
  0
VERTEX
  8
0
 10
8.23617
 20
3.8865
 30
0.0
 40
0
 41
0
  0
VERTEX
  8
0
 10
8.09771
 20
3.74918
 30
0.0
 40
0
 41
0
  0
VERTEX
  8
0
 10
7.94401
 20
3.62869
 30
0.0
 40
0
 41
0
  0
VERTEX
  8
0
 10
7.77669
 20
3.52653
 30
0.0
 40
0
 41
0
  0
VERTEX
  8
0
 10
7.59711
 20
3.44439
 30
0.0
 40
0
 41
0
  0
VERTEX
  8
0
 10
7.40679
 20
3.38374
 30
0.0
 40
0
 41
0
  0
VERTEX
  8
0
 10
7.20731
 20
3.34625
 30
0.0
 40
0
 41
0
  0
VERTEX
  8
0
 10
7.05181
 20
3.33333
 30
0.0
 40
0
 41
0
  0
VERTEX
  8
0
 10
7
 20
3.33333
 30
0.0
 40
0
 41
0
  0
VERTEX
  8
0
 10
6.95763
 20
3.33333
 30
0.0
 40
0
 41
0
  0
VERTEX
  8
0
 10
6.83062
 20
3.34489
 30
0.0
 40
0
 41
0
  0
VERTEX
  8
0
 10
6.69368
 20
3.36882
 30
0.0
 40
0
 41
0
  0
VERTEX
  8
0
 10
6.66667
 20
3.375
 30
0.0
 40
0
 41
0
  0
VERTEX
  8
0
 10
6.66667
 20
2.69857
 30
0.0
 40
0
 41
0
  0
VERTEX
  8
0
 10
6.69385
 20
2.69417
 30
0.0
 40
0
 41
0
  0
VERTEX
  8
0
 10
6.92344
 20
2.66667
 30
0.0
 40
0
 41
0
  0
VERTEX
  8
0
 10
7
 20
2.66667
 30
0.0
 40
0
 41
0
  0
VERTEX
  8
0
 10
7.05897
 20
2.66667
 30
0.0
 40
0
 41
0
  0
VERTEX
  8
0
 10
7.23594
 20
2.67854
 30
0.0
 40
0
 41
0
  0
VERTEX
  8
0
 10
7.46506
 20
2.71326
 30
0.0
 40
0
 41
0
  0
VERTEX
  8
0
 10
7.68625
 20
2.76975
 30
0.0
 40
0
 41
0
  0
VERTEX
  8
0
 10
7.89844
 20
2.84679
 30
0.0
 40
0
 41
0
  0
VERTEX
  8
0
 10
8.10042
 20
2.94331
 30
0.0
 40
0
 41
0
  0
VERTEX
  8
0
 10
8.29124
 20
3.05811
 30
0.0
 40
0
 41
0
  0
VERTEX
  8
0
 10
8.46972
 20
3.19
 30
0.0
 40
0
 41
0
  0
VERTEX
  8
0
 10
8.59532
 20
3.2991
 30
0.0
 40
0
 41
0
  0
VERTEX
  8
0
 10
8.63476
 20
3.33789
 30
0.0
 40
0
 41
0
  0
VERTEX
  8
0
 10
8.63753
 20
3.33772
 30
0.0
 40
0
 41
0
  0
VERTEX
  8
0
 10
8.65935
 20
3.33333
 30
0.0
 40
0
 41
0
  0
VERTEX
  8
0
 10
8.66667
 20
3.33333
 30
0.0
 40
0
 41
0
  0
VERTEX
  8
0
 10
8.71778
 20
3.33333
 30
0.0
 40
0
 41
0
  0
VERTEX
  8
0
 10
8.87115
 20
3.34369
 30
0.0
 40
0
 41
0
  0
VERTEX
  8
0
 10
9.06976
 20
3.37397
 30
0.0
 40
0
 41
0
  0
VERTEX
  8
0
 10
9.26144
 20
3.42324
 30
0.0
 40
0
 41
0
  0
VERTEX
  8
0
 10
9.44526
 20
3.4905
 30
0.0
 40
0
 41
0
  0
VERTEX
  8
0
 10
9.62007
 20
3.57471
 30
0.0
 40
0
 41
0
  0
VERTEX
  8
0
 10
9.785
 20
3.67486
 30
0.0
 40
0
 41
0
  0
VERTEX
  8
0
 10
9.93892
 20
3.78999
 30
0.0
 40
0
 41
0
  0
VERTEX
  8
0
 10
10.0809
 20
3.91906
 30
0.0
 40
0
 41
0
  0
VERTEX
  8
0
 10
10.21
 20
4.06108
 30
0.0
 40
0
 41
0
  0
VERTEX
  8
0
 10
10.3251
 20
4.215
 30
0.0
 40
0
 41
0
  0
VERTEX
  8
0
 10
10.4253
 20
4.37993
 30
0.0
 40
0
 41
0
  0
VERTEX
  8
0
 10
10.5095
 20
4.55474
 30
0.0
 40
0
 41
0
  0
VERTEX
  8
0
 10
10.5768
 20
4.73856
 30
0.0
 40
0
 41
0
  0
VERTEX
  8
0
 10
10.626
 20
4.93024
 30
0.0
 40
0
 41
0
  0
VERTEX
  8
0
 10
10.6563
 20
5.12885
 30
0.0
 40
0
 41
0
  0
VERTEX
  8
0
 10
10.6667
 20
5.28222
 30
0.0
 40
0
 41
0
  0
VERTEX
  8
0
 10
10.6667
 20
5.33333
 30
0.0
 40
0
 41
0
  0
VERTEX
  8
0
 10
10.6667
 20
5.3845
 30
0.0
 40
0
 41
0
  0
VERTEX
  8
0
 10
10.6563
 20
5.53787
 30
0.0
 40
0
 41
0
  0
VERTEX
  8
0
 10
10.626
 20
5.73649
 30
0.0
 40
0
 41
0
  0
VERTEX
  8
0
 10
10.5768
 20
5.92817
 30
0.0
 40
0
 41
0
  0
VERTEX
  8
0
 10
10.5095
 20
6.11199
 30
0.0
 40
0
 41
0
  0
VERTEX
  8
0
 10
10.4253
 20
6.28678
 30
0.0
 40
0
 41
0
  0
VERTEX
  8
0
 10
10.3251
 20
6.45171
 30
0.0
 40
0
 41
0
  0
VERTEX
  8
0
 10
10.21
 20
6.60563
 30
0.0
 40
0
 41
0
  0
VERTEX
  8
0
 10
10.0809
 20
6.74767
 30
0.0
 40
0
 41
0
  0
VERTEX
  8
0
 10
9.93892
 20
6.87674
 30
0.0
 40
0
 41
0
  0
VERTEX
  8
0
 10
9.785
 20
6.99186
 30
0.0
 40
0
 41
0
  0
VERTEX
  8
0
 10
9.62007
 20
7.09201
 30
0.0
 40
0
 41
0
  0
VERTEX
  8
0
 10
9.44526
 20
7.17622
 30
0.0
 40
0
 41
0
  0
VERTEX
  8
0
 10
9.26144
 20
7.24349
 30
0.0
 40
0
 41
0
  0
VERTEX
  8
0
 10
9.06976
 20
7.29275
 30
0.0
 40
0
 41
0
  0
VERTEX
  8
0
 10
8.87115
 20
7.32303
 30
0.0
 40
0
 41
0
  0
VERTEX
  8
0
 10
8.71778
 20
7.33333
 30
0.0
 40
0
 41
0
  0
VERTEX
  8
0
 10
8.66667
 20
7.33333
 30
0.0
 40
0
 41
0
  0
SEQEND
 8
0
  0
POLYLINE
  8
0
 62
     0
 66
     1
 10
0
 20
0
 30
0.0
 70
     1
 40
0
 41
0
  0
VERTEX
  8
0
 10
6
 20
5.33333
 30
0.0
 40
0
 41
0
  0
VERTEX
  8
0
 10
4.66667
 20
5.33333
 30
0.0
 40
0
 41
0
  0
VERTEX
  8
0
 10
4.66667
 20
2
 30
0.0
 40
0
 41
0
  0
VERTEX
  8
0
 10
3.33333
 20
2
 30
0.0
 40
0
 41
0
  0
VERTEX
  8
0
 10
5.33333
 20
0
 30
0.0
 40
0
 41
0
  0
VERTEX
  8
0
 10
7.33333
 20
2
 30
0.0
 40
0
 41
0
  0
VERTEX
  8
0
 10
6
 20
2
 30
0.0
 40
0
 41
0
  0
VERTEX
  8
0
 10
6
 20
5.33333
 30
0.0
 40
0
 41
0
  0
SEQEND
 8
0
  0
ENDSEC
  0
EOF
