0
SECTION
2
HEADER
9
$INSUNITS
70
0
0
ENDSEC
0
SECTION
2
TABLES
0
TABLE
2
LTYPE
0
LTYPE
72
65
70
64
2
CONTINUOUS
3
______
73
0
40
0
0
LTYPE
72
65
70
64
2
DASHED
3
_ _ _ 
73
2
40
10
49
5
49
-5
0
LTYPE
72
65
70
64
2
DOTTED
3
. . . 
73
2
40
5
49
0
49
-5
0
ENDTAB
0
TABLE
2
LAYER
0
LAYER
70
64
2
0
62
7
6
CONTINUOUS
0
ENDTAB
0
ENDSEC
0
SECTION
2
ENTITIES
0
SPLINE
8
0
100
AcDbSpline
210
0.0
220
0.0
230
1.0
70
8
71
2
72
7
73
4
74
0
42
1e-7
43
1e-7
44
1e-10
40
0
40
0
40
0
40
1
40
2
40
2
40
2
10
0
20
0
30
0
10
10
20
10
30
0
10
20
20
10
30
0
10
30
20
0
30
0
0
SPLINE
8
0
100
AcDbSpline
210
0.0
220
0.0
230
1.0
70
8
71
3
72
8
73
4
74
0
42
1e-7
43
1e-7
44
1e-10
40
0
40
0
40
0
40
0
40
1
40
1
40
1
40
1
10
0
20
0
30
0
10
10
20
10
30
0
10
20
20
10
30
0
10
30
20
0
30
0
0
SPLINE
8
0
100
AcDbSpline
210
0.0
220
0.0
230
1.0
70
8
71
2
72
8
73
5
74
0
42
1e-7
43
1e-7
44
1e-10
40
0
40
0
40
0
40
1
40
2
40
3
40
3
40
3
10
0
20
0
30
0
10
0
20
10
30
0
10
15
20
15
30
0
10
30
20
10
30
0
10
30
20
0
30
0
0
SPLINE
8
0
100
AcDbSpline
210
0.0
220
0.0
230
1.0
70
8
71
3
72
9
73
5
74
0
42
1e-7
43
1e-7
44
1e-10
40
0
40
0
40
0
40
0
40
1
40
2
40
2
40
2
40
2
10
0
20
0
30
0
10
0
20
10
30
0
10
15
20
15
30
0
10
30
20
10
30
0
10
30
20
0
30
0
0
SPLINE
8
0
100
AcDbSpline
210
0.0
220
0.0
230
1.0
70
8
71
3
72
9
73
5
74
0
42
1e-7
43
1e-7
44
1e-10
40
0
40
0
40
0
40
0
40
0.5
40
2
40
2
40
2
40
2
10
0
20
0
30
0
10
0
20
10
30
0
10
15
20
15
30
0
10
30
20
10
30
0
10
30
20
0
30
0
0
SPLINE
8
0
100
AcDbSpline
210
0.0
220
0.0
230
1.0
70
8
71
2
72
8
73
5
74
0
42
1e-7
43
1e-7
44
1e-10
40
0
40
0
40
0
40
1
40
1
40
2
40
2
40
2
10
0
20
0
30
0
10
0
20
10
30
0
10
15
20
15
30
0
10
30
20
10
30
0
10
30
20
0
30
0
0
ENDSEC
0
EOF